<?xml version="1.0" encoding="utf-8"?>
<!-- Repair icon by Arthur Shlain from Usefulicons.com -->
<svg xmlns="http://www.w3.org/2000/svg" xmlns:xlink="http://www.w3.org/1999/xlink" xml:space="preserve" version="1.1" x="0px" y="0px" viewBox="0 0 100 100" width="400px" height="400px"><g style="fill: #ff6a6a"><path d="M95,62.5v-25H82.692c-0.229-0.601-0.475-1.194-0.735-1.779l8.702-8.702L72.98,9.341l-8.701,8.701   c-0.585-0.261-1.179-0.506-1.779-0.735V5h-25v12.307c-0.601,0.229-1.194,0.475-1.779,0.735L27.02,9.341L9.341,27.019l8.702,8.702   c-0.261,0.585-0.507,1.179-0.735,1.779H5v25h12.308c0.229,0.601,0.475,1.194,0.735,1.779l-8.702,8.702L27.02,90.659l8.701-8.701   c0.585,0.261,1.179,0.506,1.779,0.735V95h25V82.693c0.601-0.229,1.194-0.475,1.779-0.735l8.701,8.701l17.679-17.678l-8.702-8.702   c0.261-0.585,0.507-1.179,0.735-1.779H95z M27.02,80.052l-7.071-7.071l16.465-16.466l-0.529-1.489C35.297,53.379,35,51.688,35,50   c0-8.271,6.729-15,15-15c1.72,0,3.423,0.301,5.038,0.883l-7.579,4.375l0.051,11.179l9.655,5.632l7.595-4.384   C63.49,59.679,57.354,65,50,65c-1.689,0-3.381-0.297-5.026-0.884l-1.489-0.531L27.02,80.052z M80.052,72.981l-7.071,7.071   l-7.397-7.397c-3.122,2.152-6.711,3.671-10.584,4.383V87.5H45V77.038c-2.108-0.387-4.127-1.022-6.037-1.859l5.871-5.871   C46.532,69.768,48.264,70,50,70c11.028,0,20-8.972,20-20c0-0.131-0.007-0.26-0.022-0.488c-0.052-1.172-0.697-2.209-1.728-2.773   c-1.025-0.562-2.243-0.548-3.255,0.037l-7.816,4.513l-4.683-2.731l-0.023-5.42l7.817-4.513c1-0.578,1.619-1.612,1.656-2.766   c0.036-1.16-0.518-2.236-1.482-2.879l-0.087-0.055C57.236,31.011,53.647,30,50,30c-11.028,0-20,8.972-20,20   c0,1.734,0.232,3.466,0.692,5.166l-5.872,5.872c-0.837-1.91-1.472-3.929-1.859-6.037H12.5V45h10.462   c0.712-3.873,2.231-7.462,4.383-10.584l-7.397-7.397l7.071-7.071l7.397,7.397c3.122-2.152,6.711-3.671,10.584-4.383V12.5h10v10.462   c3.873,0.712,7.462,2.231,10.584,4.383l7.397-7.397l7.071,7.071l-7.397,7.397c2.152,3.122,3.671,6.711,4.383,10.584H87.5v10H77.038   c-0.712,3.873-2.231,7.462-4.383,10.584L80.052,72.981z" stroke="none"></path></g></svg>