<svg id="svg" version="1.1" xmlns="http://www.w3.org/2000/svg" xmlns:xlink="http://www.w3.org/1999/xlink" width="400" height="400" viewBox="0, 0, 400,400"><g id="svgg"><path id="path0" d="M73.400 71.654 C 59.076 74.228,45.946 82.312,38.408 93.200 C 37.875 93.970,37.317 94.690,37.168 94.800 C 36.609 95.212,32.232 102.709,30.918 105.506 C 25.206 117.654,22.500 133.521,24.011 146.000 C 24.797 152.495,25.167 154.506,26.458 159.300 C 35.788 193.957,66.901 213.252,96.400 202.674 C 100.663 201.145,107.228 197.721,108.400 196.416 C 108.510 196.293,109.274 195.744,110.097 195.196 C 115.253 191.765,123.921 181.145,128.051 173.200 C 137.497 155.028,138.660 128.275,130.807 109.800 C 125.233 96.686,117.489 86.713,107.798 80.171 C 104.129 77.693,97.774 74.400,96.663 74.400 C 96.324 74.400,95.949 74.241,95.830 74.048 C 95.710 73.854,95.114 73.576,94.506 73.430 C 91.092 72.610,89.905 72.354,87.000 71.812 C 83.519 71.162,76.584 71.082,73.400 71.654 M313.600 71.675 C 272.931 78.522,251.250 130.623,271.704 172.357 C 291.680 213.117,339.462 217.060,364.282 179.997 C 375.291 163.558,379.229 139.514,374.108 120.000 C 373.790 118.790,373.374 117.170,373.182 116.400 C 371.818 110.911,364.765 96.151,362.867 94.815 C 362.699 94.697,362.128 93.970,361.598 93.200 C 361.068 92.430,359.793 90.900,358.765 89.800 C 357.737 88.700,356.470 87.332,355.948 86.759 C 352.266 82.717,344.203 77.269,338.600 75.038 C 333.943 73.183,332.491 72.795,325.833 71.618 C 323.034 71.124,316.702 71.153,313.600 71.675 M331.626 114.814 C 332.400 115.228,332.904 159.822,332.157 161.767 C 331.789 162.728,308.611 162.728,308.243 161.767 C 307.743 160.466,307.971 115.389,308.480 114.880 C 309.104 114.256,330.469 114.195,331.626 114.814 M91.600 138.600 L 91.600 162.400 79.800 162.400 L 68.000 162.400 68.000 138.600 L 68.000 114.800 79.800 114.800 L 91.600 114.800 91.600 138.600 M197.600 239.675 C 197.050 239.906,196.150 240.275,195.600 240.495 C 195.050 240.714,194.287 241.052,193.905 241.247 C 193.523 241.441,192.936 241.600,192.600 241.600 C 192.264 241.600,191.677 241.759,191.295 241.953 C 190.360 242.429,188.893 243.018,187.200 243.600 C 186.430 243.864,185.350 244.267,184.800 244.494 C 183.362 245.088,182.389 245.454,180.800 246.000 C 180.030 246.264,178.950 246.667,178.400 246.894 C 176.557 247.655,173.666 248.733,167.400 250.995 C 165.200 251.789,162.455 252.790,161.300 253.219 C 160.145 253.649,158.165 254.374,156.900 254.832 C 155.635 255.290,154.287 255.830,153.905 256.032 C 153.523 256.234,152.936 256.400,152.600 256.400 C 152.264 256.400,151.677 256.559,151.295 256.753 C 150.913 256.948,150.060 257.329,149.400 257.600 C 148.740 257.871,147.887 258.252,147.505 258.447 C 147.123 258.641,146.536 258.800,146.200 258.800 C 145.864 258.800,145.232 258.980,144.795 259.200 C 144.358 259.420,143.642 259.780,143.205 260.000 C 142.768 260.220,142.136 260.400,141.800 260.400 C 141.464 260.400,140.877 260.559,140.495 260.753 C 139.215 261.404,136.764 262.388,134.400 263.200 C 133.630 263.464,132.640 263.825,132.200 264.001 C 131.760 264.178,130.320 264.717,129.000 265.200 C 127.680 265.683,126.240 266.230,125.800 266.416 C 125.360 266.603,123.650 267.225,122.000 267.801 C 116.513 269.713,110.209 272.046,109.505 272.426 C 109.123 272.632,108.448 272.800,108.005 272.800 C 107.562 272.800,107.200 272.947,107.200 273.128 C 107.200 273.308,106.289 273.704,105.175 274.007 C 104.061 274.310,103.060 274.703,102.951 274.879 C 102.842 275.056,102.401 275.200,101.971 275.200 C 101.541 275.200,100.877 275.359,100.495 275.553 C 100.113 275.748,99.350 276.084,98.800 276.300 C 98.250 276.516,97.350 276.879,96.800 277.106 C 96.250 277.333,95.170 277.736,94.400 278.000 C 93.630 278.264,92.550 278.667,92.000 278.894 C 90.562 279.488,89.589 279.854,88.000 280.400 C 87.230 280.664,86.240 281.025,85.800 281.201 C 85.360 281.378,83.920 281.917,82.600 282.399 C 81.280 282.881,79.321 283.619,78.247 284.038 C 77.172 284.457,76.034 284.800,75.718 284.800 C 75.402 284.800,74.886 285.057,74.571 285.371 C 73.917 286.026,73.804 286.568,74.400 286.200 C 74.638 286.053,74.800 286.529,74.800 287.376 C 74.800 288.159,74.942 288.800,75.115 288.800 C 75.288 288.800,75.474 289.385,75.528 290.100 C 75.581 290.815,75.800 291.460,76.013 291.533 C 76.226 291.607,76.400 292.192,76.400 292.833 C 76.400 293.475,76.556 294.000,76.746 294.000 C 76.936 294.000,77.203 294.812,77.339 295.805 C 77.475 296.798,77.949 298.361,78.393 299.280 C 78.837 300.199,79.200 301.276,79.200 301.675 C 79.200 302.074,79.380 302.400,79.600 302.400 C 79.820 302.400,80.000 302.760,80.000 303.200 C 80.000 303.640,80.180 304.000,80.400 304.000 C 80.620 304.000,80.800 304.252,80.800 304.559 C 80.800 304.867,81.340 306.145,82.000 307.400 C 82.660 308.655,83.200 309.944,83.200 310.264 C 83.200 310.585,83.380 310.736,83.600 310.600 C 83.820 310.464,84.000 310.708,84.000 311.143 C 84.000 311.578,84.136 311.993,84.302 312.067 C 84.468 312.140,85.215 313.415,85.962 314.900 C 86.709 316.385,87.439 317.600,87.585 317.600 C 87.731 317.600,88.098 318.230,88.400 319.000 C 88.702 319.770,89.096 320.400,89.275 320.400 C 89.454 320.400,89.600 320.670,89.600 321.000 C 89.600 321.330,89.780 321.600,90.000 321.600 C 90.220 321.600,90.400 321.870,90.400 322.200 C 90.400 322.530,90.550 322.800,90.732 322.800 C 90.915 322.800,91.320 323.295,91.632 323.900 C 91.945 324.505,92.605 325.413,93.100 325.918 C 93.595 326.423,94.000 327.070,94.000 327.355 C 94.000 327.640,94.720 328.607,95.600 329.505 C 96.480 330.403,97.200 331.306,97.200 331.511 C 97.200 331.717,98.145 332.913,99.300 334.168 C 102.049 337.156,109.600 344.810,109.600 344.609 C 109.600 344.523,110.594 345.430,111.809 346.626 C 113.024 347.822,114.205 348.800,114.433 348.800 C 114.661 348.800,114.736 348.980,114.600 349.200 C 114.464 349.420,114.678 349.601,115.076 349.603 C 115.474 349.604,116.520 350.316,117.400 351.183 C 118.280 352.051,119.185 352.770,119.412 352.780 C 119.638 352.791,120.083 353.160,120.400 353.600 C 120.717 354.040,121.297 354.400,121.688 354.400 C 122.080 354.400,122.400 354.568,122.400 354.773 C 122.400 354.978,122.715 355.246,123.100 355.369 C 123.485 355.491,124.257 355.998,124.815 356.496 C 125.373 356.993,126.093 357.459,126.415 357.532 C 126.737 357.604,127.284 357.919,127.631 358.232 C 127.979 358.544,128.474 358.800,128.731 358.800 C 128.989 358.800,129.200 358.980,129.200 359.200 C 129.200 359.420,129.436 359.600,129.725 359.600 C 130.013 359.600,130.684 360.005,131.215 360.500 C 131.747 360.995,132.236 361.342,132.303 361.272 C 132.511 361.054,134.800 362.177,134.800 362.498 C 134.800 362.664,135.160 362.800,135.600 362.800 C 136.040 362.800,136.400 362.980,136.400 363.200 C 136.400 363.420,136.760 363.600,137.200 363.600 C 137.640 363.600,138.000 363.780,138.000 364.000 C 138.000 364.220,138.360 364.400,138.800 364.400 C 139.240 364.400,139.600 364.580,139.600 364.800 C 139.600 365.020,139.853 365.200,140.162 365.200 C 140.471 365.200,141.416 365.551,142.262 365.981 C 145.451 367.600,147.374 368.400,148.075 368.400 C 148.474 368.400,148.800 368.580,148.800 368.800 C 148.800 369.020,149.160 369.200,149.600 369.200 C 150.040 369.200,150.400 369.380,150.400 369.600 C 150.400 369.820,150.839 370.000,151.376 370.000 C 151.913 370.000,152.464 370.180,152.600 370.400 C 152.736 370.620,153.377 370.800,154.024 370.800 C 154.671 370.800,155.200 370.980,155.200 371.200 C 155.200 371.420,155.729 371.600,156.376 371.600 C 157.023 371.600,157.664 371.780,157.800 372.000 C 157.936 372.220,158.476 372.400,159.000 372.400 C 159.524 372.400,160.052 372.561,160.174 372.758 C 160.295 372.955,161.071 373.204,161.897 373.312 C 163.971 373.583,165.604 373.974,166.369 374.383 C 166.724 374.573,168.500 374.858,170.316 375.017 C 172.132 375.175,173.714 375.461,173.832 375.652 C 173.951 375.844,174.937 376.000,176.024 376.000 C 177.111 376.000,178.000 376.155,178.000 376.344 C 178.000 376.533,179.485 376.723,181.300 376.766 C 183.115 376.809,184.771 377.014,184.980 377.222 C 185.191 377.432,188.621 377.600,192.680 377.600 L 200.000 377.600 200.000 308.400 C 200.000 231.724,200.239 238.564,197.600 239.675 " stroke="none" fill="#ecc2bc" fill-rule="evenodd"></path><path id="path1" d="M192.000 22.800 C 192.000 23.020,191.100 23.200,190.000 23.200 C 188.900 23.200,188.000 23.380,188.000 23.600 C 188.000 23.820,187.406 24.000,186.680 24.000 C 185.954 24.000,185.181 24.179,184.962 24.398 C 184.744 24.616,184.091 24.835,183.511 24.883 C 182.932 24.930,182.545 25.112,182.652 25.285 C 182.760 25.458,182.397 25.600,181.847 25.600 C 181.297 25.600,180.736 25.780,180.600 26.000 C 180.464 26.220,179.993 26.400,179.553 26.400 C 179.113 26.400,178.864 26.580,179.000 26.800 C 179.136 27.020,178.917 27.200,178.513 27.200 C 178.109 27.200,177.378 27.480,176.889 27.823 C 176.400 28.165,176.000 28.332,176.000 28.194 C 176.000 28.056,175.717 28.226,175.371 28.571 C 175.026 28.917,174.514 29.200,174.233 29.200 C 173.953 29.200,173.398 29.560,173.000 30.000 C 172.602 30.440,172.068 30.800,171.813 30.800 C 171.559 30.800,171.002 31.124,170.575 31.519 C 169.638 32.389,164.940 35.600,164.605 35.600 C 164.474 35.600,163.980 35.960,163.508 36.400 C 163.036 36.840,162.413 37.200,162.125 37.200 C 161.836 37.200,161.600 37.380,161.600 37.600 C 161.600 37.820,161.330 38.000,161.000 38.000 C 160.670 38.000,160.400 38.146,160.400 38.325 C 160.400 38.504,159.770 38.898,159.000 39.200 C 158.230 39.502,157.600 39.862,157.600 40.000 C 157.600 40.138,156.970 40.498,156.200 40.800 C 155.430 41.102,154.800 41.496,154.800 41.675 C 154.800 41.854,154.547 42.000,154.238 42.000 C 153.929 42.000,152.984 42.343,152.138 42.762 C 148.337 44.645,142.617 47.083,141.400 47.339 C 141.180 47.385,140.791 47.553,140.536 47.713 C 140.280 47.872,139.618 48.041,139.065 48.086 C 138.511 48.132,138.145 48.312,138.252 48.485 C 138.360 48.658,138.002 48.800,137.457 48.800 C 136.912 48.800,136.407 48.972,136.333 49.182 C 136.260 49.393,135.525 49.610,134.700 49.664 C 133.875 49.719,133.200 49.907,133.200 50.082 C 133.200 50.257,132.761 50.400,132.224 50.400 C 131.687 50.400,131.136 50.580,131.000 50.800 C 130.864 51.020,130.043 51.200,129.176 51.200 C 128.309 51.200,127.600 51.380,127.600 51.600 C 127.600 51.820,126.880 52.000,126.000 52.000 C 125.120 52.000,124.400 52.180,124.400 52.400 C 124.400 52.620,123.601 52.800,122.624 52.800 C 121.647 52.800,120.736 52.980,120.600 53.200 C 120.464 53.420,119.283 53.600,117.976 53.600 C 116.659 53.600,115.600 53.778,115.600 54.000 C 115.600 54.220,114.790 54.400,113.800 54.400 C 111.467 54.400,111.530 54.825,114.100 56.419 C 128.368 65.269,136.001 72.459,143.937 84.523 C 161.054 110.547,164.655 149.875,152.376 176.696 C 151.949 177.628,151.600 178.495,151.600 178.621 C 151.600 182.881,136.744 203.401,128.873 210.013 C 127.703 210.996,126.437 212.070,126.059 212.400 C 118.433 219.060,104.610 225.774,94.800 227.581 C 93.370 227.845,91.301 228.255,90.201 228.494 C 87.822 229.010,76.104 229.128,70.934 228.688 L 67.269 228.376 67.468 229.288 C 67.577 229.790,67.807 230.560,67.978 231.000 C 68.849 233.239,69.200 234.834,69.200 236.552 C 69.200 237.609,69.363 238.346,69.569 238.219 C 70.097 237.893,70.418 243.002,70.637 255.193 C 70.744 261.207,70.993 265.953,71.213 266.173 C 71.426 266.386,71.600 268.245,71.600 270.304 C 71.600 272.464,71.755 273.952,71.966 273.821 C 72.167 273.697,72.431 274.721,72.552 276.098 C 72.989 281.039,73.283 282.796,73.639 282.576 C 73.837 282.453,74.000 282.813,74.000 283.376 C 74.000 284.790,74.040 284.783,81.000 282.220 C 81.440 282.058,82.340 281.744,83.000 281.522 C 83.660 281.301,84.650 280.933,85.200 280.706 C 86.638 280.112,87.611 279.746,89.200 279.200 C 90.893 278.618,92.360 278.029,93.295 277.553 C 93.677 277.359,94.264 277.200,94.600 277.200 C 94.936 277.200,95.523 277.041,95.905 276.847 C 96.287 276.652,97.140 276.271,97.800 276.000 C 98.460 275.729,99.313 275.348,99.695 275.153 C 100.077 274.959,100.664 274.800,101.000 274.800 C 101.336 274.800,101.923 274.641,102.305 274.447 C 103.240 273.971,104.707 273.382,106.400 272.800 C 107.170 272.536,108.160 272.175,108.600 271.999 C 109.542 271.621,111.627 270.852,120.000 267.795 C 123.410 266.550,126.560 265.385,127.000 265.206 C 127.440 265.027,128.430 264.664,129.200 264.400 C 130.893 263.818,132.360 263.229,133.295 262.753 C 133.677 262.559,134.264 262.400,134.600 262.400 C 134.936 262.400,135.523 262.241,135.905 262.047 C 136.840 261.571,138.307 260.982,140.000 260.400 C 141.589 259.854,142.562 259.488,144.000 258.894 C 144.550 258.667,145.630 258.264,146.400 258.000 C 147.170 257.736,148.160 257.375,148.600 257.199 C 149.040 257.022,150.480 256.483,151.800 256.000 C 153.120 255.517,154.560 254.977,155.000 254.800 C 156.269 254.289,171.142 248.859,173.800 247.936 C 174.460 247.707,175.405 247.357,175.900 247.160 C 176.395 246.962,177.205 246.638,177.700 246.440 C 178.195 246.243,179.230 245.864,180.000 245.600 C 181.693 245.018,183.160 244.429,184.095 243.953 C 184.477 243.759,185.064 243.600,185.400 243.600 C 185.736 243.600,186.323 243.441,186.705 243.247 C 187.640 242.771,189.107 242.182,190.800 241.600 C 191.570 241.336,192.650 240.933,193.200 240.706 C 193.750 240.479,194.560 240.156,195.000 239.989 C 195.440 239.822,196.700 239.337,197.800 238.910 C 199.724 238.164,199.869 238.160,201.600 238.829 C 204.276 239.861,209.897 241.970,212.400 242.879 C 213.610 243.318,214.960 243.823,215.400 244.000 C 216.171 244.310,218.474 245.158,222.900 246.760 C 224.055 247.178,226.440 248.065,228.200 248.731 C 232.126 250.217,240.825 253.432,246.200 255.385 C 250.804 257.058,254.250 258.337,255.400 258.800 C 255.840 258.977,257.235 259.500,258.500 259.961 C 259.765 260.422,261.835 261.178,263.100 261.639 C 264.365 262.100,265.760 262.623,266.200 262.800 C 266.640 262.977,268.080 263.517,269.400 264.000 C 270.720 264.483,272.160 265.023,272.600 265.200 C 273.040 265.377,274.435 265.900,275.700 266.361 C 279.253 267.657,281.744 268.574,287.600 270.743 C 290.570 271.842,294.800 273.395,297.000 274.193 C 299.200 274.991,301.360 275.796,301.800 275.982 C 302.240 276.167,303.230 276.536,304.000 276.800 C 304.770 277.064,305.850 277.467,306.400 277.694 C 307.838 278.288,308.811 278.654,310.400 279.200 C 311.170 279.464,312.160 279.824,312.600 280.000 C 313.040 280.176,314.030 280.536,314.800 280.800 C 315.570 281.064,316.560 281.425,317.000 281.602 C 320.969 283.197,324.287 284.404,324.700 284.402 C 324.975 284.401,325.200 284.771,325.200 285.224 C 325.200 285.677,325.380 285.936,325.600 285.800 C 325.820 285.664,326.000 284.854,326.000 284.000 C 326.000 283.146,326.180 282.336,326.400 282.200 C 326.620 282.064,326.800 281.074,326.800 280.000 C 326.800 278.926,326.980 277.936,327.200 277.800 C 327.420 277.664,327.600 276.563,327.600 275.353 C 327.600 274.089,327.759 273.251,327.974 273.384 C 328.403 273.649,328.662 269.622,329.191 254.400 C 329.615 242.207,329.943 237.517,330.352 237.770 C 330.510 237.868,330.685 237.285,330.739 236.475 C 330.794 235.665,331.010 234.830,331.219 234.621 C 331.429 234.411,331.600 233.837,331.600 233.344 C 331.600 232.851,331.780 232.336,332.000 232.200 C 332.220 232.064,332.400 231.513,332.400 230.976 C 332.400 230.439,332.580 230.000,332.800 230.000 C 333.020 230.000,333.200 229.620,333.200 229.155 C 333.200 228.421,333.028 228.339,331.900 228.536 C 316.338 231.248,295.029 227.251,283.938 219.538 C 283.354 219.132,282.759 218.800,282.616 218.800 C 282.389 218.800,278.086 215.982,277.000 215.122 C 268.090 208.064,262.227 201.993,257.198 194.615 C 256.454 193.524,255.340 192.102,254.722 191.456 C 254.105 190.810,253.600 190.038,253.600 189.741 C 253.600 189.443,253.465 189.199,253.300 189.197 C 253.135 189.195,252.802 188.790,252.560 188.297 C 252.318 187.804,251.303 185.780,250.304 183.800 C 249.304 181.820,247.914 178.670,247.214 176.800 C 246.514 174.930,245.787 173.040,245.597 172.600 C 245.408 172.160,245.039 171.080,244.777 170.200 C 244.516 169.320,244.144 168.287,243.951 167.905 C 243.758 167.523,243.600 166.769,243.600 166.229 C 243.600 165.689,243.420 165.136,243.200 165.000 C 242.980 164.864,242.800 164.144,242.800 163.400 C 242.800 162.656,242.620 161.936,242.400 161.800 C 242.180 161.664,242.000 160.789,242.000 159.856 C 242.000 158.923,241.837 157.989,241.637 157.780 C 240.635 156.731,239.796 140.468,240.339 132.600 C 241.210 119.962,243.669 109.024,247.644 100.104 C 248.060 99.172,248.400 98.325,248.400 98.222 C 248.400 97.776,251.138 92.316,252.924 89.200 C 260.695 75.643,271.892 64.186,284.194 57.203 C 288.193 54.934,288.528 54.400,285.953 54.400 C 284.908 54.400,284.446 54.250,284.620 53.967 C 284.780 53.709,284.588 53.567,284.144 53.614 C 282.476 53.790,279.565 53.580,279.741 53.296 C 279.844 53.128,278.910 52.937,277.664 52.870 C 276.419 52.803,275.340 52.580,275.267 52.374 C 275.193 52.168,274.439 52.000,273.590 52.000 C 272.742 52.000,271.936 51.820,271.800 51.600 C 271.664 51.380,271.171 51.200,270.705 51.200 C 269.804 51.200,267.461 50.535,266.305 49.951 C 265.923 49.758,265.238 49.600,264.782 49.600 C 264.257 49.600,264.058 49.431,264.238 49.138 C 264.403 48.872,264.349 48.784,264.112 48.931 C 263.650 49.216,260.384 48.262,258.700 47.350 C 258.095 47.023,257.600 46.861,257.600 46.991 C 257.600 47.122,257.195 47.003,256.700 46.728 C 256.205 46.453,255.710 46.213,255.600 46.195 C 254.748 46.050,253.600 45.486,253.600 45.210 C 253.600 45.026,253.240 44.969,252.800 45.084 C 252.353 45.201,252.000 45.096,252.000 44.847 C 252.000 44.601,251.735 44.400,251.412 44.400 C 251.089 44.400,250.183 44.040,249.400 43.600 C 248.617 43.160,247.711 42.800,247.388 42.800 C 247.065 42.800,246.799 42.665,246.799 42.500 C 246.798 42.335,245.808 41.750,244.600 41.200 C 243.392 40.650,242.402 40.065,242.401 39.900 C 242.401 39.735,242.122 39.600,241.783 39.600 C 241.444 39.600,240.780 39.240,240.308 38.800 C 239.836 38.360,239.202 38.000,238.901 38.000 C 238.599 38.000,238.464 37.820,238.600 37.600 C 238.740 37.373,238.404 37.200,237.824 37.200 C 237.261 37.200,236.800 37.050,236.800 36.868 C 236.800 36.685,236.305 36.280,235.700 35.968 C 234.550 35.374,231.476 33.244,230.336 32.250 C 229.970 31.932,229.050 31.376,228.290 31.016 C 227.530 30.655,226.569 30.052,226.154 29.676 C 225.739 29.300,224.500 28.560,223.400 28.033 C 222.300 27.505,221.087 26.922,220.705 26.737 C 220.323 26.552,219.738 26.400,219.405 26.400 C 219.072 26.400,218.800 26.220,218.800 26.000 C 218.800 25.780,218.451 25.600,218.024 25.600 C 217.597 25.600,217.136 25.420,217.000 25.200 C 216.864 24.980,216.313 24.800,215.776 24.800 C 215.239 24.800,214.800 24.620,214.800 24.400 C 214.800 24.180,214.181 24.000,213.424 24.000 C 212.667 24.000,211.936 23.820,211.800 23.600 C 211.664 23.380,210.843 23.200,209.976 23.200 C 209.109 23.200,208.400 23.020,208.400 22.800 C 208.400 22.546,205.400 22.400,200.200 22.400 C 195.000 22.400,192.000 22.546,192.000 22.800 " stroke="none" fill="#a2332b" fill-rule="evenodd"></path><path id="path2" d="M68.800 138.400 L 68.800 161.600 80.000 161.600 L 91.200 161.600 91.200 138.400 L 91.200 115.200 80.000 115.200 L 68.800 115.200 68.800 138.400 M308.800 138.400 L 308.800 161.600 320.200 161.600 L 331.600 161.600 331.600 138.400 L 331.600 115.200 320.200 115.200 L 308.800 115.200 308.800 138.400 " stroke="none" fill="#3b372e" fill-rule="evenodd"></path><path id="path3" d="M226.886 30.200 C 227.695 30.750,228.592 31.196,228.879 31.191 C 229.165 31.186,228.815 30.893,228.100 30.541 C 227.385 30.188,226.800 29.743,226.800 29.550 C 226.800 29.358,226.488 29.200,226.107 29.200 C 225.658 29.200,225.931 29.551,226.886 30.200 M77.800 46.830 C 77.360 47.003,75.256 47.156,73.124 47.172 C 70.992 47.187,69.136 47.380,69.000 47.600 C 68.864 47.820,67.874 48.000,66.800 48.000 C 65.726 48.000,64.736 48.180,64.600 48.400 C 64.464 48.620,63.821 48.800,63.171 48.800 C 62.521 48.800,61.677 48.962,61.295 49.161 C 60.913 49.360,59.790 49.740,58.800 50.007 C 56.956 50.503,55.533 51.022,54.305 51.647 C 53.923 51.841,53.248 52.000,52.805 52.000 C 52.362 52.000,52.000 52.180,52.000 52.400 C 52.000 52.620,51.640 52.800,51.200 52.800 C 50.760 52.800,50.400 52.980,50.400 53.200 C 50.400 53.420,50.040 53.600,49.600 53.600 C 49.160 53.600,48.800 53.780,48.800 54.000 C 48.800 54.220,48.350 54.400,47.800 54.400 C 47.250 54.400,46.800 54.546,46.800 54.725 C 46.800 54.904,46.170 55.298,45.400 55.600 C 44.630 55.902,44.000 56.296,44.000 56.475 C 44.000 56.654,43.730 56.800,43.400 56.800 C 43.070 56.800,42.800 56.980,42.800 57.200 C 42.800 57.420,42.480 57.600,42.088 57.600 C 41.697 57.600,41.117 57.960,40.800 58.400 C 40.483 58.840,39.918 59.200,39.545 59.200 C 39.172 59.200,38.807 59.335,38.733 59.500 C 38.660 59.665,37.790 60.340,36.800 61.000 C 35.810 61.660,34.797 62.380,34.549 62.600 C 34.301 62.820,33.696 63.270,33.205 63.600 C 32.713 63.930,30.946 65.505,29.276 67.100 C 27.607 68.695,26.097 70.000,25.921 70.000 C 25.744 70.000,25.600 70.270,25.600 70.600 C 25.600 70.930,25.420 71.200,25.200 71.200 C 24.980 71.200,24.800 71.392,24.800 71.626 C 24.800 71.860,23.940 72.895,22.889 73.926 C 21.838 74.957,20.540 76.430,20.005 77.200 C 19.470 77.970,18.710 78.835,18.316 79.123 C 17.922 79.410,17.600 79.905,17.600 80.223 C 17.600 80.540,17.450 80.800,17.268 80.800 C 17.085 80.800,16.681 81.295,16.370 81.900 C 16.060 82.505,15.489 83.291,15.103 83.647 C 14.716 84.003,14.400 84.588,14.400 84.947 C 14.400 85.306,14.251 85.600,14.068 85.600 C 13.886 85.600,13.315 86.500,12.800 87.600 C 12.285 88.700,11.732 89.600,11.571 89.600 C 11.410 89.600,11.103 90.095,10.888 90.700 C 10.085 92.964,9.001 95.200,8.706 95.200 C 8.538 95.200,8.400 95.650,8.400 96.200 C 8.400 96.750,8.220 97.200,8.000 97.200 C 7.780 97.200,7.600 97.549,7.600 97.976 C 7.600 98.403,7.420 98.864,7.200 99.000 C 6.980 99.136,6.800 99.697,6.800 100.247 C 6.800 100.812,6.626 101.140,6.400 101.000 C 6.173 100.860,6.000 101.196,6.000 101.776 C 6.000 102.339,5.820 102.800,5.600 102.800 C 5.380 102.800,5.200 103.340,5.200 104.000 C 5.200 104.660,5.020 105.200,4.800 105.200 C 4.580 105.200,4.400 105.740,4.400 106.400 C 4.400 107.060,4.220 107.600,4.000 107.600 C 3.780 107.600,3.600 108.140,3.600 108.800 C 3.600 109.460,3.420 110.000,3.200 110.000 C 2.980 110.000,2.800 110.619,2.800 111.376 C 2.800 112.133,2.620 112.864,2.400 113.000 C 2.180 113.136,2.000 113.957,2.000 114.824 C 2.000 115.691,1.820 116.400,1.600 116.400 C 1.380 116.400,1.200 117.174,1.200 118.120 C 1.200 119.066,0.975 120.065,0.700 120.340 C -0.028 121.068,-0.028 156.057,0.700 156.300 C 1.010 156.403,1.200 157.216,1.200 158.433 C 1.200 159.515,1.380 160.400,1.600 160.400 C 1.820 160.400,2.000 161.109,2.000 161.976 C 2.000 162.843,2.180 163.664,2.400 163.800 C 2.620 163.936,2.800 164.667,2.800 165.424 C 2.800 166.181,2.980 166.800,3.200 166.800 C 3.420 166.800,3.600 167.329,3.600 167.976 C 3.600 168.623,3.780 169.264,4.000 169.400 C 4.220 169.536,4.400 169.999,4.400 170.429 C 4.400 170.859,4.580 171.568,4.800 172.005 C 5.020 172.442,5.380 173.158,5.600 173.595 C 5.820 174.032,6.000 174.752,6.000 175.195 C 6.000 175.638,6.180 176.000,6.400 176.000 C 6.620 176.000,6.800 176.342,6.800 176.759 C 6.800 177.177,7.340 178.545,8.000 179.800 C 8.660 181.055,9.200 182.333,9.200 182.641 C 9.200 182.948,9.380 183.200,9.600 183.200 C 9.820 183.200,10.000 183.515,10.001 183.900 C 10.002 184.285,10.632 185.644,11.401 186.920 C 12.170 188.196,12.800 189.411,12.800 189.620 C 12.800 189.829,12.980 190.000,13.200 190.000 C 13.420 190.000,13.600 190.294,13.600 190.653 C 13.600 191.012,13.916 191.597,14.303 191.953 C 14.689 192.309,15.260 193.095,15.570 193.700 C 15.881 194.305,16.285 194.800,16.468 194.800 C 16.650 194.800,16.800 195.025,16.800 195.300 C 16.801 195.575,17.251 196.323,17.800 196.962 C 18.350 197.601,18.800 198.239,18.800 198.379 C 18.800 198.519,19.430 199.301,20.200 200.118 C 20.970 200.934,21.600 201.717,21.600 201.858 C 21.600 201.998,22.140 202.629,22.800 203.260 C 23.460 203.891,24.000 204.474,24.000 204.555 C 24.000 204.922,27.953 208.800,28.327 208.800 C 28.557 208.800,28.851 209.131,28.980 209.536 C 29.108 209.941,29.660 210.511,30.207 210.804 C 30.753 211.096,31.200 211.485,31.200 211.668 C 31.200 211.850,31.386 212.000,31.613 212.000 C 31.841 212.000,32.657 212.630,33.427 213.400 C 34.197 214.170,34.992 214.800,35.195 214.800 C 35.398 214.800,36.014 215.250,36.564 215.800 C 37.114 216.350,37.718 216.800,37.906 216.800 C 38.095 216.800,38.599 217.115,39.027 217.500 C 39.455 217.885,40.613 218.637,41.602 219.170 C 42.591 219.704,43.490 220.250,43.600 220.384 C 44.092 220.984,52.353 224.773,53.700 225.017 C 54.525 225.167,55.200 225.449,55.200 225.645 C 55.200 225.840,55.740 226.000,56.400 226.000 C 57.060 226.000,57.600 226.180,57.600 226.400 C 57.600 226.620,58.140 226.800,58.800 226.800 C 59.460 226.800,60.000 226.980,60.000 227.200 C 60.000 227.420,60.720 227.600,61.600 227.600 C 62.480 227.600,63.200 227.780,63.200 228.000 C 63.200 228.220,64.010 228.400,65.000 228.400 C 65.990 228.400,66.800 228.580,66.800 228.800 C 66.800 229.020,66.991 229.200,67.224 229.200 C 67.457 229.200,67.531 229.012,67.390 228.783 C 67.213 228.497,68.301 228.465,70.866 228.683 C 76.097 229.127,87.809 229.012,90.201 228.494 C 91.301 228.255,93.370 227.845,94.800 227.581 C 104.610 225.774,118.433 219.060,126.059 212.400 C 126.437 212.070,127.703 210.996,128.873 210.013 C 134.615 205.190,142.687 195.225,147.191 187.400 C 148.991 184.274,151.600 179.078,151.600 178.621 C 151.600 178.495,151.949 177.628,152.376 176.696 C 159.954 160.143,161.711 133.791,156.589 113.491 C 150.448 89.154,135.458 68.785,115.030 57.019 C 113.946 56.395,112.557 55.370,111.943 54.742 C 111.329 54.114,110.551 53.600,110.213 53.600 C 109.876 53.600,109.600 53.420,109.600 53.200 C 109.600 52.980,109.240 52.800,108.800 52.800 C 108.360 52.800,108.000 52.620,108.000 52.400 C 108.000 52.180,107.460 52.000,106.800 52.000 C 106.140 52.000,105.600 51.820,105.600 51.600 C 105.600 51.380,105.251 51.200,104.824 51.200 C 104.397 51.200,103.936 51.020,103.800 50.800 C 103.664 50.580,103.023 50.400,102.376 50.400 C 101.729 50.400,101.200 50.220,101.200 50.000 C 101.200 49.780,100.570 49.600,99.800 49.600 C 99.030 49.600,98.400 49.420,98.400 49.200 C 98.400 48.980,97.691 48.800,96.824 48.800 C 95.957 48.800,95.136 48.620,95.000 48.400 C 94.864 48.180,93.863 48.000,92.776 48.000 C 91.689 48.000,90.800 47.843,90.800 47.651 C 90.800 47.459,89.057 47.269,86.927 47.230 C 84.797 47.190,82.885 47.053,82.678 46.924 C 82.075 46.552,78.676 46.486,77.800 46.830 M318.204 46.731 C 318.056 46.879,316.105 47.130,313.868 47.288 C 311.631 47.447,308.630 47.767,307.200 48.000 C 305.770 48.233,303.924 48.527,303.097 48.654 C 302.271 48.781,301.495 49.045,301.374 49.242 C 301.252 49.439,300.623 49.600,299.976 49.600 C 299.329 49.600,298.800 49.780,298.800 50.000 C 298.800 50.220,298.260 50.400,297.600 50.400 C 296.940 50.400,296.400 50.580,296.400 50.800 C 296.400 51.020,295.950 51.200,295.400 51.200 C 294.850 51.200,294.400 51.380,294.400 51.600 C 294.400 51.820,293.860 52.000,293.200 52.000 C 292.540 52.000,291.999 52.135,291.997 52.300 C 291.993 52.659,290.056 53.600,289.320 53.600 C 289.034 53.600,288.800 53.780,288.800 54.000 C 288.800 54.220,288.519 54.400,288.176 54.400 C 287.833 54.400,287.645 54.549,287.758 54.732 C 287.871 54.915,286.267 56.027,284.194 57.203 C 271.892 64.186,260.695 75.643,252.924 89.200 C 251.138 92.316,248.400 97.776,248.400 98.222 C 248.400 98.325,248.060 99.172,247.644 100.104 C 243.669 109.024,241.210 119.962,240.339 132.600 C 239.796 140.468,240.635 156.731,241.637 157.780 C 241.837 157.989,242.000 158.923,242.000 159.856 C 242.000 160.789,242.180 161.664,242.400 161.800 C 242.620 161.936,242.800 162.656,242.800 163.400 C 242.800 164.144,242.980 164.864,243.200 165.000 C 243.420 165.136,243.600 165.689,243.600 166.229 C 243.600 166.769,243.758 167.523,243.951 167.905 C 244.144 168.287,244.516 169.320,244.777 170.200 C 245.039 171.080,245.408 172.160,245.597 172.600 C 245.787 173.040,246.514 174.930,247.214 176.800 C 247.914 178.670,249.304 181.820,250.304 183.800 C 251.303 185.780,252.318 187.804,252.560 188.297 C 252.802 188.790,253.135 189.195,253.300 189.197 C 253.465 189.199,253.600 189.443,253.600 189.741 C 253.600 190.038,254.105 190.810,254.722 191.456 C 255.340 192.102,256.454 193.524,257.198 194.615 C 262.227 201.993,268.090 208.064,277.000 215.122 C 278.086 215.982,282.389 218.800,282.616 218.800 C 282.759 218.800,283.354 219.132,283.938 219.538 C 294.677 227.006,315.680 231.164,330.346 228.725 C 332.306 228.399,332.962 228.415,333.196 228.794 C 333.413 229.144,333.579 229.158,333.774 228.843 C 333.924 228.599,334.757 228.400,335.624 228.400 C 336.491 228.400,337.200 228.220,337.200 228.000 C 337.200 227.780,337.830 227.600,338.600 227.600 C 339.370 227.600,340.000 227.420,340.000 227.200 C 340.000 226.980,340.540 226.800,341.200 226.800 C 341.860 226.800,342.400 226.620,342.400 226.400 C 342.400 226.180,342.940 226.000,343.600 226.000 C 344.260 226.000,344.800 225.820,344.800 225.600 C 344.800 225.380,345.295 225.197,345.900 225.193 C 346.505 225.188,348.237 224.558,349.748 223.793 C 351.260 223.027,352.730 222.400,353.015 222.400 C 353.300 222.400,353.593 222.265,353.667 222.100 C 353.740 221.935,354.700 221.350,355.800 220.801 C 356.900 220.251,358.149 219.486,358.575 219.101 C 359.002 218.715,359.547 218.400,359.787 218.400 C 360.027 218.400,360.483 218.040,360.800 217.600 C 361.117 217.160,361.657 216.800,362.000 216.800 C 362.343 216.800,362.883 216.440,363.200 216.000 C 363.517 215.560,363.978 215.200,364.225 215.200 C 364.471 215.200,365.510 214.435,366.533 213.500 C 367.556 212.565,369.059 211.260,369.874 210.600 C 372.061 208.828,377.600 203.233,377.600 202.796 C 377.600 202.589,378.500 201.475,379.600 200.322 C 380.700 199.169,381.600 197.994,381.600 197.713 C 381.600 197.431,381.738 197.200,381.906 197.200 C 382.074 197.200,382.656 196.480,383.200 195.600 C 383.744 194.720,384.326 194.000,384.494 194.000 C 384.662 194.000,384.800 193.722,384.800 193.383 C 384.800 193.044,385.160 192.380,385.600 191.908 C 386.040 191.436,386.400 190.813,386.400 190.525 C 386.400 190.236,386.580 190.000,386.800 190.000 C 387.020 190.000,387.200 189.730,387.200 189.400 C 387.200 189.070,387.380 188.800,387.600 188.800 C 387.820 188.800,388.000 188.530,388.000 188.200 C 388.000 187.870,388.210 187.600,388.467 187.600 C 388.723 187.600,388.815 187.482,388.670 187.337 C 388.525 187.192,388.561 186.877,388.750 186.637 C 389.587 185.571,391.130 182.430,391.384 181.275 C 391.536 180.579,391.828 179.906,392.031 179.781 C 392.234 179.655,392.400 179.113,392.400 178.576 C 392.400 178.039,392.580 177.600,392.800 177.600 C 393.020 177.600,393.200 177.240,393.200 176.800 C 393.200 176.360,393.347 176.000,393.528 176.000 C 393.708 176.000,394.100 175.100,394.400 174.000 C 394.700 172.900,395.092 172.000,395.272 172.000 C 395.453 172.000,395.600 171.370,395.600 170.600 C 395.600 169.830,395.780 169.200,396.000 169.200 C 396.220 169.200,396.400 168.660,396.400 168.000 C 396.400 167.340,396.580 166.800,396.800 166.800 C 397.020 166.800,397.200 166.181,397.200 165.424 C 397.200 164.667,397.380 163.936,397.600 163.800 C 397.820 163.664,398.000 162.843,398.000 161.976 C 398.000 161.109,398.180 160.400,398.400 160.400 C 398.620 160.400,398.800 159.515,398.800 158.433 C 398.800 157.216,398.990 156.403,399.300 156.300 C 399.690 156.170,399.800 152.248,399.800 138.487 C 399.800 124.903,399.685 120.725,399.300 120.340 C 399.025 120.065,398.800 119.066,398.800 118.120 C 398.800 117.174,398.620 116.400,398.400 116.400 C 398.180 116.400,398.000 115.691,398.000 114.824 C 398.000 113.957,397.820 113.136,397.600 113.000 C 397.380 112.864,397.200 112.234,397.200 111.600 C 397.200 110.966,397.020 110.336,396.800 110.200 C 396.580 110.064,396.400 109.524,396.400 109.000 C 396.400 108.476,396.220 107.936,396.000 107.800 C 395.780 107.664,395.600 107.023,395.600 106.376 C 395.600 105.729,395.420 105.200,395.200 105.200 C 394.980 105.200,394.800 104.660,394.800 104.000 C 394.800 103.340,394.620 102.800,394.400 102.800 C 394.180 102.800,394.000 102.521,394.000 102.181 C 394.000 101.840,393.640 100.816,393.200 99.906 C 392.760 98.995,392.400 98.014,392.400 97.725 C 392.400 97.436,392.220 97.200,392.000 97.200 C 391.780 97.200,391.600 96.887,391.600 96.504 C 391.600 95.694,388.807 89.864,388.325 89.667 C 388.146 89.593,388.000 89.271,388.000 88.950 C 388.000 88.629,387.640 87.980,387.200 87.508 C 386.760 87.036,386.400 86.413,386.400 86.125 C 386.400 85.836,386.241 85.600,386.047 85.600 C 385.852 85.600,385.593 85.285,385.471 84.900 C 385.163 83.927,383.955 82.006,383.000 80.969 C 381.508 79.349,380.800 78.392,380.800 77.995 C 380.800 77.778,380.620 77.600,380.400 77.600 C 380.180 77.600,380.000 77.417,380.000 77.193 C 380.000 76.969,378.830 75.615,377.400 74.185 C 375.970 72.755,374.800 71.417,374.800 71.211 C 374.800 70.678,369.803 66.009,366.600 63.549 C 365.940 63.042,365.310 62.531,365.200 62.413 C 365.090 62.294,364.190 61.658,363.200 60.999 C 362.210 60.339,361.340 59.665,361.267 59.500 C 361.193 59.335,360.828 59.200,360.455 59.200 C 360.082 59.200,359.517 58.840,359.200 58.400 C 358.883 57.960,358.303 57.600,357.912 57.600 C 357.520 57.600,357.200 57.420,357.200 57.200 C 357.200 56.980,356.930 56.800,356.600 56.800 C 356.270 56.800,356.000 56.664,356.000 56.498 C 356.000 56.331,355.415 55.941,354.700 55.630 C 353.985 55.319,353.310 54.960,353.200 54.832 C 352.741 54.299,351.154 53.600,350.405 53.600 C 349.962 53.600,349.600 53.420,349.600 53.200 C 349.600 52.980,349.240 52.800,348.800 52.800 C 348.360 52.800,348.000 52.653,348.000 52.472 C 348.000 52.292,347.100 51.900,346.000 51.600 C 344.900 51.300,344.000 50.908,344.000 50.728 C 344.000 50.547,343.608 50.400,343.128 50.400 C 342.208 50.400,339.872 49.740,338.705 49.151 C 338.323 48.958,337.479 48.800,336.829 48.800 C 336.179 48.800,335.536 48.620,335.400 48.400 C 335.264 48.180,334.209 48.000,333.056 48.000 C 331.903 48.000,330.789 47.835,330.580 47.634 C 330.371 47.432,328.400 47.178,326.200 47.069 C 324.000 46.961,321.361 46.779,320.336 46.667 C 319.310 46.554,318.351 46.583,318.204 46.731 M89.000 71.274 C 90.100 71.508,91.450 71.836,92.000 72.003 C 92.550 72.170,93.810 72.539,94.800 72.823 C 95.790 73.107,96.771 73.488,96.980 73.670 C 97.189 73.851,97.639 74.002,97.980 74.005 C 98.840 74.012,104.552 76.961,107.142 78.734 C 108.320 79.540,109.587 80.380,109.959 80.600 C 111.009 81.222,115.609 85.243,117.050 86.800 C 119.363 89.297,122.190 92.584,122.600 93.252 C 122.820 93.610,123.874 95.220,124.941 96.828 C 127.302 100.384,130.000 105.384,130.000 106.201 C 130.000 106.531,130.180 106.800,130.400 106.800 C 130.620 106.800,130.800 107.000,130.800 107.245 C 130.800 107.489,131.434 109.383,132.210 111.453 C 138.102 127.185,138.349 146.875,132.868 163.800 C 131.711 167.372,126.392 178.654,125.607 179.200 C 125.449 179.310,125.088 179.839,124.806 180.375 C 124.523 180.911,124.133 181.541,123.939 181.775 C 123.745 182.009,122.715 183.370,121.650 184.800 C 119.418 187.797,114.533 192.864,112.200 194.603 C 111.320 195.259,110.510 195.900,110.400 196.028 C 109.064 197.579,100.634 202.127,96.400 203.580 C 82.034 208.509,65.193 206.706,53.875 199.025 C 53.044 198.461,52.262 198.000,52.137 198.000 C 51.848 198.000,50.007 196.507,46.151 193.147 C 42.626 190.075,35.600 182.237,35.600 181.377 C 35.600 181.204,35.315 180.748,34.967 180.363 C 33.397 178.628,28.828 169.242,27.391 164.800 C 26.786 162.930,26.149 161.040,25.976 160.600 C 25.802 160.160,25.547 159.260,25.409 158.600 C 25.270 157.940,24.976 156.590,24.755 155.600 C 24.533 154.610,24.158 152.720,23.921 151.400 C 23.318 148.051,23.316 128.868,23.918 125.600 C 24.658 121.583,25.098 119.543,25.603 117.800 C 25.857 116.920,26.162 115.703,26.279 115.095 C 26.396 114.487,26.651 113.892,26.846 113.771 C 27.041 113.651,27.200 113.198,27.200 112.764 C 27.200 110.329,35.350 94.628,37.562 92.800 C 37.696 92.690,38.288 91.951,38.879 91.157 C 40.450 89.047,46.983 82.558,48.712 81.389 C 49.531 80.836,51.010 79.854,52.000 79.207 C 52.990 78.559,53.980 77.883,54.200 77.703 C 54.614 77.365,58.457 75.468,61.600 74.050 C 68.582 70.900,81.220 69.620,89.000 71.274 M329.000 71.264 C 331.251 71.731,336.184 73.086,337.400 73.570 C 341.230 75.096,349.439 79.643,350.400 80.770 C 350.510 80.899,351.320 81.539,352.200 82.193 C 354.176 83.661,359.541 89.041,361.069 91.086 C 361.691 91.919,362.419 92.832,362.686 93.115 C 362.953 93.398,363.487 94.163,363.872 94.815 C 364.257 95.467,364.714 96.000,364.886 96.000 C 365.059 96.000,365.200 96.199,365.200 96.442 C 365.200 96.685,365.697 97.630,366.304 98.542 C 368.816 102.313,372.194 109.922,373.823 115.475 C 376.128 123.334,376.548 126.924,376.528 138.600 C 376.512 148.628,376.382 150.244,375.065 156.800 C 373.726 163.466,367.865 177.234,365.033 180.363 C 364.685 180.748,364.400 181.204,364.400 181.377 C 364.400 181.759,362.842 183.729,360.300 186.561 C 359.255 187.725,358.387 188.840,358.370 189.039 C 358.321 189.639,348.472 198.000,347.814 198.000 C 347.716 198.000,346.955 198.462,346.124 199.026 C 345.293 199.590,343.980 200.345,343.206 200.705 C 342.433 201.064,341.710 201.458,341.600 201.579 C 339.839 203.523,327.070 206.400,320.201 206.400 C 311.778 206.400,296.798 202.248,294.400 199.249 C 294.290 199.111,293.705 198.744,293.100 198.432 C 292.495 198.120,292.000 197.715,292.000 197.532 C 292.000 197.350,291.822 197.200,291.603 197.200 C 290.577 197.200,279.200 186.900,279.200 185.970 C 279.200 185.826,278.662 185.099,278.004 184.354 C 277.346 183.609,276.704 182.685,276.577 182.300 C 276.450 181.915,276.190 181.600,276.000 181.600 C 275.810 181.600,275.540 181.241,275.401 180.802 C 275.262 180.364,274.934 179.772,274.674 179.487 C 273.922 178.665,270.617 172.334,269.094 168.800 C 262.578 153.674,261.361 134.506,265.856 117.800 C 269.252 105.174,274.895 95.144,283.428 86.564 C 285.877 84.100,288.583 81.622,289.441 81.057 C 290.298 80.492,291.720 79.524,292.600 78.906 C 293.480 78.289,296.000 76.905,298.200 75.831 C 303.632 73.178,304.290 72.935,309.800 71.542 C 314.013 70.478,324.482 70.326,329.000 71.264 M329.479 243.757 C 329.315 244.174,329.275 244.609,329.391 244.724 C 329.755 245.089,330.076 244.491,329.924 243.731 C 329.783 243.035,329.762 243.036,329.479 243.757 M328.679 265.357 C 328.515 265.774,328.475 266.209,328.591 266.324 C 328.955 266.689,329.276 266.091,329.124 265.331 C 328.983 264.635,328.962 264.636,328.679 265.357 " stroke="none" fill="#7b2c1c" fill-rule="evenodd"></path><path id="path4" d="M76.719 71.098 C 78.544 71.172,81.424 71.172,83.119 71.097 C 84.814 71.022,83.320 70.961,79.800 70.962 C 76.280 70.962,74.894 71.024,76.719 71.098 M317.100 71.097 C 318.695 71.173,321.305 71.173,322.900 71.097 C 324.495 71.021,323.190 70.959,320.000 70.959 C 316.810 70.959,315.505 71.021,317.100 71.097 M69.905 71.883 C 70.402 71.979,71.122 71.975,71.505 71.875 C 71.887 71.775,71.480 71.696,70.600 71.701 C 69.720 71.705,69.407 71.787,69.905 71.883 M88.500 71.876 C 88.885 71.976,89.515 71.976,89.900 71.876 C 90.285 71.775,89.970 71.693,89.200 71.693 C 88.430 71.693,88.115 71.775,88.500 71.876 M310.500 71.876 C 310.885 71.976,311.515 71.976,311.900 71.876 C 312.285 71.775,311.970 71.693,311.200 71.693 C 310.430 71.693,310.115 71.775,310.500 71.876 M328.500 71.876 C 328.885 71.976,329.515 71.976,329.900 71.876 C 330.285 71.775,329.970 71.693,329.200 71.693 C 328.430 71.693,328.115 71.775,328.500 71.876 M286.263 84.270 C 284.362 85.959,282.882 87.415,282.973 87.506 C 283.064 87.597,284.277 86.592,285.669 85.273 C 287.061 83.954,288.650 82.504,289.200 82.051 C 289.750 81.598,290.092 81.221,289.959 81.213 C 289.827 81.206,288.163 82.582,286.263 84.270 M351.000 81.966 C 351.778 82.861,354.000 84.598,354.000 84.312 C 354.000 84.234,353.145 83.467,352.100 82.608 C 351.055 81.749,350.560 81.460,351.000 81.966 M114.000 84.419 C 114.000 84.524,115.197 85.868,116.660 87.405 C 118.122 88.942,119.126 89.840,118.889 89.400 C 118.459 88.601,114.000 84.057,114.000 84.419 M280.844 89.645 C 278.990 91.801,279.423 91.870,281.352 89.725 C 282.206 88.776,282.746 88.015,282.552 88.034 C 282.358 88.052,281.590 88.777,280.844 89.645 M359.200 89.807 C 359.200 89.970,359.830 90.800,360.600 91.653 C 361.370 92.505,361.996 93.067,361.991 92.901 C 361.978 92.504,359.200 89.424,359.200 89.807 M38.900 91.616 C 37.637 93.175,37.771 93.533,39.050 92.014 C 39.627 91.328,40.032 90.708,39.950 90.636 C 39.867 90.564,39.395 91.005,38.900 91.616 M277.669 93.639 C 276.928 94.824,277.257 94.913,278.119 93.761 C 278.514 93.232,278.692 92.800,278.515 92.800 C 278.338 92.800,277.957 93.178,277.669 93.639 M362.413 93.856 C 362.431 94.344,363.557 95.776,363.761 95.571 C 363.855 95.477,363.587 94.975,363.166 94.456 C 362.745 93.936,362.406 93.666,362.413 93.856 M364.473 97.000 C 364.723 97.550,365.084 98.000,365.273 98.000 C 365.463 98.000,365.324 97.550,364.963 97.000 C 364.603 96.450,364.243 96.000,364.163 96.000 C 364.083 96.000,364.222 96.450,364.473 97.000 M68.267 115.067 C 68.120 115.213,68.000 125.830,68.000 138.659 L 68.000 161.985 68.900 162.205 C 69.395 162.326,74.660 162.374,80.600 162.312 L 91.400 162.200 91.405 138.800 L 91.410 115.400 91.302 138.706 L 91.194 162.012 79.897 161.906 L 68.600 161.800 68.600 138.300 C 68.600 125.375,68.585 114.800,68.567 114.800 C 68.548 114.800,68.413 114.920,68.267 115.067 M374.893 122.000 C 374.893 122.770,374.975 123.085,375.076 122.700 C 375.176 122.315,375.176 121.685,375.076 121.300 C 374.975 120.915,374.893 121.230,374.893 122.000 M24.114 126.600 C 24.117 127.700,24.195 128.103,24.287 127.495 C 24.379 126.886,24.377 125.986,24.282 125.495 C 24.187 125.003,24.111 125.500,24.114 126.600 M375.709 126.400 C 375.709 127.390,375.787 127.795,375.882 127.300 C 375.978 126.805,375.978 125.995,375.882 125.500 C 375.787 125.005,375.709 125.410,375.709 126.400 M264.101 128.200 C 264.105 129.080,264.187 129.393,264.283 128.895 C 264.379 128.398,264.375 127.678,264.275 127.295 C 264.175 126.913,264.096 127.320,264.101 128.200 M23.368 138.600 C 23.368 143.000,23.426 144.855,23.498 142.721 C 23.570 140.588,23.570 136.988,23.499 134.721 C 23.427 132.455,23.368 134.200,23.368 138.600 M376.567 138.400 C 376.567 142.690,376.626 144.445,376.698 142.300 C 376.770 140.155,376.770 136.645,376.698 134.500 C 376.626 132.355,376.567 134.110,376.567 138.400 M136.551 138.400 C 136.551 140.930,136.616 141.965,136.696 140.700 C 136.775 139.435,136.775 137.365,136.696 136.100 C 136.616 134.835,136.551 135.870,136.551 138.400 M263.344 138.400 C 263.344 140.490,263.412 141.345,263.494 140.300 C 263.576 139.255,263.576 137.545,263.494 136.500 C 263.412 135.455,263.344 136.310,263.344 138.400 M264.101 148.600 C 264.105 149.480,264.187 149.793,264.283 149.295 C 264.379 148.798,264.375 148.078,264.275 147.695 C 264.175 147.313,264.096 147.720,264.101 148.600 M24.109 150.400 C 24.109 151.390,24.187 151.795,24.282 151.300 C 24.378 150.805,24.378 149.995,24.282 149.500 C 24.187 149.005,24.109 149.410,24.109 150.400 M375.709 150.400 C 375.709 151.390,375.787 151.795,375.882 151.300 C 375.978 150.805,375.978 149.995,375.882 149.500 C 375.787 149.005,375.709 149.410,375.709 150.400 M374.893 154.800 C 374.893 155.570,374.975 155.885,375.076 155.500 C 375.176 155.115,375.176 154.485,375.076 154.100 C 374.975 153.715,374.893 154.030,374.893 154.800 M24.893 155.200 C 24.893 155.970,24.975 156.285,25.076 155.900 C 25.176 155.515,25.176 154.885,25.076 154.500 C 24.975 154.115,24.893 154.430,24.893 155.200 M331.600 161.545 C 331.600 161.908,328.806 161.997,320.038 161.912 C 313.679 161.850,308.559 161.935,308.661 162.100 C 308.965 162.591,331.511 162.467,331.816 161.973 C 331.961 161.739,331.972 161.439,331.840 161.307 C 331.708 161.175,331.600 161.282,331.600 161.545 M271.615 173.200 C 271.621 173.530,271.890 174.149,272.213 174.576 C 272.968 175.575,272.963 175.205,272.202 173.746 C 271.874 173.116,271.610 172.870,271.615 173.200 M122.653 182.500 L 121.933 183.800 122.758 182.800 C 123.489 181.913,123.814 181.200,123.486 181.200 C 123.424 181.200,123.049 181.785,122.653 182.500 M278.800 184.658 C 278.800 184.874,279.385 185.579,280.100 186.225 L 281.400 187.400 280.200 186.002 C 279.540 185.233,278.955 184.528,278.900 184.435 C 278.845 184.343,278.800 184.443,278.800 184.658 M120.129 185.700 C 119.684 186.195,119.176 186.870,119.001 187.200 C 118.663 187.837,118.755 187.750,120.376 185.900 C 120.906 185.295,121.249 184.800,121.139 184.800 C 121.029 184.800,120.575 185.205,120.129 185.700 M357.396 188.804 C 356.766 189.462,356.382 190.000,356.543 190.000 C 356.956 190.000,358.922 187.988,358.713 187.780 C 358.619 187.686,358.026 188.146,357.396 188.804 M44.400 190.967 C 44.400 191.388,45.605 192.528,45.821 192.312 C 45.922 192.211,45.644 191.802,45.202 191.402 C 44.761 191.003,44.400 190.807,44.400 190.967 M287.527 193.800 C 288.181 194.350,288.838 194.800,288.988 194.800 C 289.139 194.800,288.727 194.350,288.073 193.800 C 287.419 193.250,286.762 192.800,286.612 192.800 C 286.461 192.800,286.873 193.250,287.527 193.800 M111.078 194.613 C 109.606 195.907,110.133 195.896,111.673 194.600 C 112.327 194.050,112.713 193.606,112.531 193.613 C 112.349 193.620,111.695 194.070,111.078 194.613 M296.833 200.149 C 297.245 200.517,299.600 201.600,299.600 201.421 C 299.600 201.190,297.382 200.000,296.953 200.000 C 296.796 200.000,296.742 200.067,296.833 200.149 M327.300 205.476 C 327.685 205.576,328.315 205.576,328.700 205.476 C 329.085 205.375,328.770 205.293,328.000 205.293 C 327.230 205.293,326.915 205.375,327.300 205.476 M78.112 206.295 C 79.164 206.377,80.784 206.376,81.712 206.292 C 82.640 206.208,81.780 206.141,79.800 206.142 C 77.820 206.143,77.060 206.212,78.112 206.295 M318.711 206.293 C 319.651 206.378,321.091 206.377,321.911 206.291 C 322.730 206.205,321.960 206.136,320.200 206.137 C 318.440 206.139,317.770 206.209,318.711 206.293 " stroke="none" fill="#8e796d" fill-rule="evenodd"></path><path id="path5" d="M115.600 86.600 C 116.346 87.370,117.047 88.000,117.157 88.000 C 117.267 88.000,116.746 87.370,116.000 86.600 C 115.254 85.830,114.553 85.200,114.443 85.200 C 114.333 85.200,114.854 85.830,115.600 86.600 M357.600 88.600 C 358.346 89.370,359.047 90.000,359.157 90.000 C 359.267 90.000,358.746 89.370,358.000 88.600 C 357.254 87.830,356.553 87.200,356.443 87.200 C 356.333 87.200,356.854 87.830,357.600 88.600 M314.300 114.699 C 317.435 114.767,322.565 114.767,325.700 114.699 C 328.835 114.632,326.270 114.576,320.000 114.576 C 313.730 114.576,311.165 114.632,314.300 114.699 M308.187 138.400 C 308.187 151.270,308.238 156.535,308.300 150.100 C 308.362 143.665,308.362 133.135,308.300 126.700 C 308.238 120.265,308.187 125.530,308.187 138.400 M332.187 138.400 C 332.187 151.270,332.238 156.535,332.300 150.100 C 332.362 143.665,332.362 133.135,332.300 126.700 C 332.238 120.265,332.187 125.530,332.187 138.400 M375.693 129.200 C 375.693 129.970,375.775 130.285,375.876 129.900 C 375.976 129.515,375.976 128.885,375.876 128.500 C 375.775 128.115,375.693 128.430,375.693 129.200 M264.114 131.400 C 264.117 132.500,264.195 132.903,264.287 132.295 C 264.379 131.686,264.377 130.786,264.282 130.295 C 264.187 129.803,264.111 130.300,264.114 131.400 M264.114 145.400 C 264.117 146.500,264.195 146.903,264.287 146.295 C 264.379 145.686,264.377 144.786,264.282 144.295 C 264.187 143.803,264.111 144.300,264.114 145.400 M115.586 190.300 L 113.400 192.600 115.700 190.414 C 117.837 188.382,118.183 188.000,117.886 188.000 C 117.824 188.000,116.789 189.035,115.586 190.300 M313.905 205.483 C 314.402 205.579,315.122 205.575,315.505 205.475 C 315.887 205.375,315.480 205.296,314.600 205.301 C 313.720 205.305,313.407 205.387,313.905 205.483 M324.900 205.476 C 325.285 205.576,325.915 205.576,326.300 205.476 C 326.685 205.375,326.370 205.293,325.600 205.293 C 324.830 205.293,324.515 205.375,324.900 205.476 M199.300 239.045 C 199.963 239.247,200.000 242.901,200.000 308.429 L 200.000 377.600 206.176 377.600 C 209.863 377.600,212.452 377.439,212.600 377.200 C 212.736 376.980,214.467 376.800,216.447 376.800 C 218.745 376.800,219.958 376.655,219.800 376.400 C 219.647 376.152,220.388 376.000,221.753 376.000 C 222.963 376.000,224.064 375.820,224.200 375.600 C 224.336 375.380,225.202 375.195,226.124 375.190 C 227.046 375.184,229.276 374.845,231.081 374.437 C 232.885 374.029,234.460 373.794,234.581 373.914 C 234.701 374.035,234.800 373.893,234.800 373.600 C 234.800 373.307,234.904 373.171,235.032 373.298 C 235.281 373.548,235.795 373.402,244.000 370.758 C 246.970 369.801,249.460 368.879,249.533 368.709 C 249.607 368.539,250.006 368.400,250.421 368.400 C 250.836 368.400,251.766 368.077,252.488 367.681 C 253.210 367.286,254.565 366.717,255.500 366.417 C 256.435 366.117,257.200 365.721,257.200 365.536 C 257.200 365.351,257.560 365.200,258.000 365.200 C 258.440 365.200,258.800 365.020,258.800 364.800 C 258.800 364.580,259.160 364.400,259.600 364.400 C 260.040 364.400,260.400 364.220,260.400 364.000 C 260.400 363.780,260.760 363.600,261.200 363.600 C 261.640 363.600,262.001 363.465,262.003 363.300 C 262.007 362.941,263.944 362.000,264.680 362.000 C 264.966 362.000,265.200 361.820,265.200 361.600 C 265.200 361.380,265.470 361.200,265.800 361.200 C 266.130 361.200,266.400 361.020,266.400 360.800 C 266.400 360.580,266.670 360.400,267.000 360.400 C 267.330 360.400,267.600 360.220,267.600 360.000 C 267.600 359.780,267.960 359.600,268.400 359.600 C 268.840 359.600,269.200 359.420,269.200 359.200 C 269.200 358.980,269.384 358.800,269.608 358.800 C 269.832 358.800,270.777 358.311,271.708 357.713 C 272.639 357.116,273.529 356.621,273.687 356.613 C 273.845 356.606,274.342 356.285,274.792 355.900 C 275.241 355.515,275.695 355.200,275.800 355.200 C 275.995 355.200,277.273 354.196,278.216 353.300 C 278.506 353.025,278.909 352.800,279.112 352.800 C 279.315 352.800,280.046 352.260,280.737 351.600 C 281.428 350.940,282.148 350.400,282.337 350.400 C 282.526 350.400,283.246 349.860,283.937 349.200 C 284.628 348.540,285.385 348.000,285.620 348.000 C 285.855 348.000,285.936 347.820,285.800 347.600 C 285.664 347.380,285.745 347.200,285.980 347.200 C 286.484 347.200,288.425 345.548,290.162 343.640 C 290.843 342.892,291.637 342.082,291.926 341.840 C 293.546 340.485,301.816 332.043,301.900 331.659 C 301.954 331.408,302.629 330.535,303.400 329.718 C 304.170 328.901,304.800 328.104,304.800 327.945 C 304.800 327.787,305.037 327.419,305.328 327.129 C 306.252 326.203,308.800 322.425,308.800 321.980 C 308.800 321.745,308.942 321.640,309.115 321.748 C 309.288 321.855,309.683 321.370,309.993 320.671 C 310.302 319.972,310.880 319.051,311.278 318.625 C 311.675 318.198,312.000 317.613,312.000 317.325 C 312.000 317.036,312.180 316.800,312.400 316.800 C 312.620 316.800,312.800 316.564,312.800 316.275 C 312.800 315.987,313.160 315.364,313.600 314.892 C 314.040 314.420,314.400 313.756,314.400 313.417 C 314.400 313.078,314.580 312.800,314.800 312.800 C 315.020 312.800,315.200 312.440,315.200 312.000 C 315.200 311.560,315.380 311.200,315.600 311.200 C 315.820 311.200,316.000 310.840,316.000 310.400 C 316.000 309.960,316.144 309.600,316.320 309.600 C 316.724 309.600,318.400 306.188,318.400 305.366 C 318.400 305.029,318.580 304.864,318.800 305.000 C 319.020 305.136,319.200 304.964,319.200 304.618 C 319.200 304.272,319.359 303.677,319.553 303.295 C 319.953 302.508,320.763 300.594,321.200 299.400 C 321.361 298.960,321.688 298.150,321.926 297.600 C 322.164 297.050,322.770 295.340,323.273 293.800 C 323.775 292.260,324.280 290.910,324.393 290.800 C 325.576 289.655,325.386 284.933,324.144 284.624 C 323.159 284.378,320.358 283.363,306.800 278.338 C 305.590 277.889,304.240 277.378,303.800 277.201 C 303.360 277.025,302.370 276.664,301.600 276.400 C 300.830 276.136,299.840 275.775,299.400 275.599 C 298.960 275.422,297.520 274.883,296.200 274.400 C 294.880 273.917,293.440 273.377,293.000 273.200 C 292.560 273.023,291.165 272.500,289.900 272.039 C 288.635 271.578,286.565 270.822,285.300 270.361 C 284.035 269.900,282.640 269.374,282.200 269.194 C 281.760 269.013,280.050 268.379,278.400 267.784 C 276.750 267.189,274.050 266.196,272.400 265.577 C 270.750 264.959,267.330 263.706,264.800 262.793 C 262.270 261.881,259.795 260.969,259.300 260.767 C 257.283 259.944,256.536 259.659,255.200 259.200 C 254.430 258.936,253.440 258.575,253.000 258.399 C 252.560 258.222,251.210 257.718,250.000 257.279 C 248.790 256.839,246.360 255.935,244.600 255.269 C 240.632 253.767,231.145 250.273,227.400 248.933 C 225.860 248.382,223.205 247.406,221.500 246.765 C 219.795 246.124,216.915 245.043,215.100 244.362 C 213.285 243.681,211.440 242.973,211.000 242.788 C 210.560 242.604,209.480 242.223,208.600 241.943 C 207.720 241.663,206.820 241.323,206.600 241.189 C 206.380 241.054,205.390 240.699,204.400 240.400 C 203.410 240.101,202.420 239.724,202.200 239.564 C 201.980 239.403,201.080 239.172,200.200 239.051 C 199.320 238.930,198.915 238.927,199.300 239.045 M178.000 246.661 C 177.670 246.770,177.040 247.006,176.600 247.186 C 173.525 248.446,171.418 249.200,170.970 249.200 C 170.683 249.200,170.343 249.368,170.216 249.574 C 169.963 249.983,170.912 249.733,174.301 248.497 C 175.457 248.076,176.522 247.611,176.668 247.465 C 176.814 247.319,177.253 247.200,177.643 247.200 C 178.033 247.200,178.464 247.020,178.600 246.800 C 178.736 246.580,178.792 246.414,178.724 246.432 C 178.656 246.449,178.330 246.552,178.000 246.661 M167.800 250.394 C 167.360 250.580,166.659 250.842,166.243 250.976 C 165.826 251.110,165.578 251.311,165.690 251.423 C 165.803 251.536,166.773 251.272,167.847 250.836 C 168.921 250.400,169.530 250.046,169.200 250.049 C 168.870 250.052,168.240 250.207,167.800 250.394 M134.400 262.800 C 133.410 263.215,132.780 263.563,133.000 263.572 C 133.550 263.594,136.322 262.611,136.659 262.274 C 137.120 261.814,136.290 262.007,134.400 262.800 M128.000 265.200 C 127.010 265.615,126.470 265.952,126.800 265.948 C 127.472 265.940,130.828 264.463,130.200 264.452 C 129.980 264.448,128.990 264.785,128.000 265.200 M123.643 266.805 C 121.733 267.492,120.715 268.000,121.249 268.000 C 121.658 268.000,125.622 266.511,125.868 266.265 C 126.243 265.890,126.065 265.934,123.643 266.805 M94.400 277.600 C 93.410 278.015,92.780 278.363,93.000 278.372 C 93.550 278.394,96.322 277.411,96.659 277.074 C 97.120 276.614,96.290 276.807,94.400 277.600 M88.000 280.000 C 87.010 280.415,86.380 280.763,86.600 280.772 C 87.150 280.794,89.922 279.811,90.259 279.474 C 90.720 279.014,89.890 279.207,88.000 280.000 M83.600 281.656 C 82.390 282.111,80.992 282.576,80.494 282.689 C 79.996 282.803,79.497 283.042,79.386 283.222 C 79.275 283.402,79.683 283.394,80.292 283.206 C 82.457 282.536,85.606 281.327,85.868 281.065 C 86.250 280.683,86.046 280.736,83.600 281.656 M76.400 284.225 C 75.630 284.516,75.294 284.765,75.654 284.777 C 76.014 284.790,76.914 284.537,77.654 284.216 C 79.320 283.492,78.316 283.500,76.400 284.225 " stroke="none" fill="#d0849d" fill-rule="evenodd"></path><path id="path6" d="M72.500 71.476 C 72.885 71.576,73.515 71.576,73.900 71.476 C 74.285 71.375,73.970 71.293,73.200 71.293 C 72.430 71.293,72.115 71.375,72.500 71.476 M85.600 71.355 C 85.600 71.440,86.130 71.587,86.779 71.682 C 87.427 71.777,87.867 71.708,87.755 71.528 C 87.557 71.207,85.600 71.050,85.600 71.355 M312.400 71.545 C 312.400 71.734,312.850 71.803,313.400 71.698 C 313.950 71.593,314.400 71.438,314.400 71.353 C 314.400 71.269,313.950 71.200,313.400 71.200 C 312.850 71.200,312.400 71.355,312.400 71.545 M325.600 71.355 C 325.600 71.440,326.140 71.588,326.800 71.685 C 327.460 71.782,328.000 71.713,328.000 71.531 C 328.000 71.349,327.460 71.200,326.800 71.200 C 326.140 71.200,325.600 71.270,325.600 71.355 M43.578 86.700 L 42.200 88.200 43.700 86.822 C 44.525 86.063,45.200 85.388,45.200 85.322 C 45.200 85.016,44.862 85.304,43.578 86.700 M23.709 130.400 C 23.709 131.390,23.787 131.795,23.882 131.300 C 23.978 130.805,23.978 129.995,23.882 129.500 C 23.787 129.005,23.709 129.410,23.709 130.400 M376.109 130.400 C 376.109 131.390,376.187 131.795,376.282 131.300 C 376.378 130.805,376.378 129.995,376.282 129.500 C 376.187 129.005,376.109 129.410,376.109 130.400 M263.761 138.400 C 263.761 141.810,263.822 143.205,263.897 141.500 C 263.972 139.795,263.972 137.005,263.897 135.300 C 263.822 133.595,263.761 134.990,263.761 138.400 M136.159 138.400 C 136.159 141.590,136.221 142.895,136.297 141.300 C 136.373 139.705,136.373 137.095,136.297 135.500 C 136.221 133.905,136.159 135.210,136.159 138.400 M23.701 146.600 C 23.705 147.480,23.787 147.793,23.883 147.295 C 23.979 146.798,23.975 146.078,23.875 145.695 C 23.775 145.313,23.696 145.720,23.701 146.600 M376.101 146.600 C 376.105 147.480,376.187 147.793,376.283 147.295 C 376.379 146.798,376.375 146.078,376.275 145.695 C 376.175 145.313,376.096 145.720,376.101 146.600 M116.000 190.200 C 115.028 191.190,114.323 192.000,114.433 192.000 C 114.543 192.000,115.428 191.190,116.400 190.200 C 117.372 189.210,118.077 188.400,117.967 188.400 C 117.857 188.400,116.972 189.210,116.000 190.200 M77.500 205.896 C 78.875 205.974,81.125 205.974,82.500 205.896 C 83.875 205.818,82.750 205.754,80.000 205.754 C 77.250 205.754,76.125 205.818,77.500 205.896 M317.916 205.897 C 319.299 205.975,321.459 205.974,322.716 205.895 C 323.972 205.816,322.840 205.752,320.200 205.753 C 317.560 205.753,316.532 205.818,317.916 205.897 " stroke="none" fill="#7c9474" fill-rule="evenodd"></path><path id="path7" d="M78.900 70.687 C 79.505 70.778,80.495 70.778,81.100 70.687 C 81.705 70.595,81.210 70.520,80.000 70.520 C 78.790 70.520,78.295 70.595,78.900 70.687 M318.900 70.687 C 319.505 70.778,320.495 70.778,321.100 70.687 C 321.705 70.595,321.210 70.520,320.000 70.520 C 318.790 70.520,318.295 70.595,318.900 70.687 M71.400 71.200 C 70.381 71.638,71.432 71.638,72.800 71.200 C 73.604 70.943,73.643 70.877,73.000 70.868 C 72.560 70.862,71.840 71.011,71.400 71.200 M86.800 71.200 C 87.350 71.376,88.160 71.526,88.600 71.532 L 89.400 71.544 88.600 71.200 C 88.160 71.011,87.350 70.862,86.800 70.868 L 85.800 70.880 86.800 71.200 M311.400 71.200 L 310.600 71.544 311.400 71.525 C 311.840 71.514,312.740 71.368,313.400 71.200 L 314.600 70.895 313.400 70.875 C 312.740 70.865,311.840 71.011,311.400 71.200 M325.633 70.944 C 325.725 71.024,326.610 71.196,327.600 71.327 C 328.802 71.486,329.134 71.447,328.600 71.210 C 327.836 70.872,325.286 70.643,325.633 70.944 M67.600 72.000 C 67.067 72.345,67.067 72.388,67.600 72.388 C 67.930 72.388,68.470 72.213,68.800 72.000 C 69.333 71.655,69.333 71.612,68.800 71.612 C 68.470 71.612,67.930 71.787,67.600 72.000 M308.000 72.000 C 307.205 72.514,308.204 72.514,309.400 72.000 L 310.200 71.656 309.400 71.634 C 308.960 71.622,308.330 71.787,308.000 72.000 M331.000 72.000 C 332.196 72.514,333.195 72.514,332.400 72.000 C 332.070 71.787,331.440 71.622,331.000 71.634 L 330.200 71.656 331.000 72.000 M333.800 72.800 C 334.240 72.989,334.870 73.144,335.200 73.144 C 335.578 73.144,335.504 73.017,335.000 72.800 C 334.560 72.611,333.930 72.456,333.600 72.456 C 333.222 72.456,333.296 72.583,333.800 72.800 M57.461 75.846 C 56.394 76.401,55.600 76.933,55.695 77.029 C 55.791 77.124,56.843 76.665,58.034 76.008 C 60.658 74.562,60.186 74.429,57.461 75.846 M340.000 74.964 C 340.000 75.235,344.127 77.206,344.310 77.023 C 344.403 76.930,343.568 76.392,342.453 75.827 C 340.436 74.805,340.000 74.651,340.000 74.964 M297.100 76.229 C 296.495 76.557,296.000 76.910,296.000 77.013 C 296.000 77.399,296.632 77.157,297.600 76.400 C 298.789 75.470,298.611 75.409,297.100 76.229 M104.803 77.486 C 104.805 77.659,105.255 78.008,105.804 78.263 C 106.352 78.517,106.701 78.563,106.578 78.365 C 106.252 77.837,104.799 77.118,104.803 77.486 M294.541 77.597 C 293.659 77.953,292.898 78.807,293.476 78.791 C 293.654 78.786,294.250 78.430,294.800 78.000 C 295.892 77.146,295.844 77.071,294.541 77.597 M344.800 77.308 C 344.800 77.404,346.060 78.320,347.600 79.345 C 349.140 80.369,350.400 81.069,350.400 80.902 C 350.400 80.735,349.275 79.878,347.900 78.999 C 345.154 77.242,344.800 77.050,344.800 77.308 M51.926 79.161 C 50.919 79.799,49.964 80.534,49.803 80.794 C 49.643 81.054,50.521 80.596,51.756 79.777 C 53.743 78.458,54.289 78.000,53.878 78.000 C 53.811 78.000,52.933 78.522,51.926 79.161 M291.037 79.899 C 285.075 84.291,274.072 96.000,275.907 96.000 C 276.083 96.000,276.543 95.467,276.928 94.815 C 277.313 94.163,277.847 93.398,278.114 93.115 C 278.381 92.832,279.138 91.880,279.795 91.000 C 281.683 88.472,287.570 82.868,290.200 81.094 C 293.121 79.125,292.977 79.244,292.732 78.999 C 292.622 78.888,291.859 79.293,291.037 79.899 M110.411 81.462 C 110.955 81.827,111.850 82.500,112.400 82.959 C 112.950 83.417,112.780 83.119,112.022 82.296 C 111.263 81.473,110.368 80.800,110.033 80.800 C 109.637 80.800,109.771 81.034,110.411 81.462 M47.534 82.300 C 45.612 83.893,43.522 86.003,43.887 85.983 C 44.284 85.961,49.494 81.215,49.131 81.207 C 48.983 81.203,48.264 81.695,47.534 82.300 M353.200 83.525 C 354.630 84.867,355.941 85.973,356.113 85.983 C 356.591 86.009,354.003 83.530,352.200 82.235 C 351.135 81.469,351.469 81.901,353.200 83.525 M113.643 84.100 C 113.740 84.155,114.940 85.274,116.310 86.587 C 117.679 87.901,118.800 88.842,118.800 88.679 C 118.800 88.235,114.339 84.000,113.871 84.000 C 113.649 84.000,113.546 84.045,113.643 84.100 M41.014 88.650 C 38.719 91.213,37.258 93.285,39.216 91.200 C 39.939 90.430,41.259 89.035,42.149 88.100 C 43.039 87.165,43.594 86.407,43.383 86.416 C 43.172 86.425,42.106 87.430,41.014 88.650 M357.851 88.100 C 358.741 89.035,360.062 90.430,360.787 91.200 C 361.985 92.473,362.031 92.491,361.292 91.400 C 360.242 89.849,356.975 86.400,356.556 86.400 C 356.379 86.400,356.961 87.165,357.851 88.100 M120.451 91.217 C 121.413 92.436,122.267 93.270,122.349 93.071 C 122.430 92.871,121.644 91.874,120.600 90.854 L 118.703 89.000 120.451 91.217 M35.003 96.502 C 32.675 100.092,28.811 107.391,28.810 108.200 C 28.810 108.420,29.802 106.626,31.014 104.214 C 32.227 101.802,34.287 98.247,35.593 96.314 C 36.899 94.381,37.840 92.801,37.684 92.802 C 37.528 92.803,36.321 94.468,35.003 96.502 M364.386 96.300 C 365.680 98.225,367.741 101.780,368.967 104.200 C 370.193 106.620,371.194 108.420,371.193 108.200 C 371.188 107.634,367.598 100.536,366.291 98.508 C 365.691 97.577,365.200 96.632,365.200 96.408 C 365.200 96.184,365.062 96.000,364.894 96.000 C 364.726 96.000,364.144 95.280,363.600 94.400 C 363.056 93.520,362.481 92.800,362.322 92.800 C 362.163 92.800,363.091 94.375,364.386 96.300 M123.261 94.975 C 123.518 95.539,123.886 96.000,124.078 96.000 C 124.488 96.000,123.782 94.560,123.195 94.197 C 122.966 94.055,122.994 94.389,123.261 94.975 M274.253 97.991 C 273.121 99.702,272.825 100.718,273.843 99.400 C 274.582 98.444,275.685 96.400,275.463 96.400 C 275.377 96.400,274.832 97.116,274.253 97.991 M126.009 99.100 C 126.014 99.265,126.385 99.850,126.833 100.400 L 127.648 101.400 127.014 100.100 C 126.411 98.865,125.989 98.445,126.009 99.100 M271.828 102.261 C 271.256 103.284,270.869 104.202,270.967 104.301 C 271.066 104.399,271.611 103.562,272.180 102.440 C 273.473 99.888,273.225 99.762,271.828 102.261 M127.600 101.739 C 127.600 102.166,128.914 104.419,129.071 104.262 C 129.277 104.056,128.095 101.600,127.790 101.600 C 127.685 101.600,127.600 101.662,127.600 101.739 M269.053 108.135 C 268.325 109.878,267.844 111.453,268.117 111.200 C 268.449 110.893,270.014 106.800,269.800 106.800 C 269.696 106.800,269.360 107.401,269.053 108.135 M27.833 110.433 C 27.467 111.350,27.260 112.193,27.374 112.307 C 27.488 112.421,27.692 112.174,27.827 111.757 C 27.962 111.341,28.266 110.595,28.504 110.101 C 28.741 109.606,28.837 109.103,28.717 108.984 C 28.598 108.865,28.200 109.517,27.833 110.433 M371.234 109.105 C 371.215 109.383,371.367 109.923,371.571 110.305 C 371.775 110.687,372.049 111.341,372.180 111.757 C 372.311 112.174,372.518 112.415,372.640 112.293 C 372.762 112.171,372.503 111.291,372.064 110.336 C 371.626 109.381,371.252 108.827,371.234 109.105 M267.246 112.839 C 267.001 113.543,266.813 114.318,266.828 114.560 C 266.844 114.802,267.114 114.296,267.430 113.435 C 267.745 112.574,267.933 111.800,267.848 111.715 C 267.762 111.629,267.492 112.135,267.246 112.839 M372.828 113.476 C 372.813 113.958,372.980 114.464,373.200 114.600 C 373.673 114.892,373.673 114.501,373.200 113.400 C 372.869 112.629,372.855 112.631,372.828 113.476 M68.584 115.300 C 68.478 115.575,68.439 126.150,68.496 138.800 L 68.600 161.800 79.800 161.809 L 91.000 161.819 79.900 161.703 L 68.800 161.588 68.800 138.382 L 68.800 115.176 80.162 115.288 C 86.411 115.350,91.441 115.265,91.339 115.100 C 90.994 114.544,68.798 114.739,68.584 115.300 M133.450 116.000 C 133.590 116.770,133.861 117.760,134.054 118.200 C 134.294 118.749,134.324 118.561,134.150 117.600 C 134.010 116.830,133.739 115.840,133.546 115.400 C 133.306 114.851,133.276 115.039,133.450 116.000 M308.584 115.300 C 308.478 115.575,308.439 126.150,308.496 138.800 L 308.600 161.800 320.100 161.809 L 331.600 161.819 320.200 161.703 L 308.800 161.588 308.800 138.400 L 308.800 115.212 320.100 115.100 L 331.400 114.987 320.087 114.894 C 311.336 114.821,308.732 114.913,308.584 115.300 M331.787 138.200 C 331.787 150.960,331.838 156.238,331.900 149.929 C 331.962 143.619,331.962 133.179,331.900 126.729 C 331.838 120.278,331.787 125.440,331.787 138.200 M373.600 116.110 C 373.600 116.683,373.787 117.268,374.016 117.410 C 374.289 117.579,374.338 117.277,374.160 116.534 C 373.792 115.001,373.600 114.856,373.600 116.110 M266.046 116.867 C 266.021 117.234,265.896 117.864,265.770 118.267 C 265.552 118.962,265.563 118.963,265.997 118.287 C 266.248 117.896,266.373 117.266,266.273 116.887 C 266.111 116.268,266.088 116.266,266.046 116.867 M374.434 119.000 C 374.422 119.440,374.587 120.070,374.800 120.400 C 375.314 121.195,375.314 120.196,374.800 119.000 L 374.456 118.200 374.434 119.000 M25.000 119.600 C 24.850 120.073,24.817 120.550,24.927 120.660 C 25.037 120.770,25.250 120.473,25.400 120.000 C 25.550 119.527,25.583 119.050,25.473 118.940 C 25.363 118.830,25.150 119.127,25.000 119.600 M265.029 120.629 C 264.881 121.215,264.851 121.784,264.961 121.894 C 265.071 122.004,265.281 121.615,265.429 121.029 C 265.576 120.442,265.606 119.873,265.496 119.763 C 265.386 119.653,265.176 120.042,265.029 120.629 M24.229 123.429 C 24.081 124.015,24.038 124.572,24.132 124.666 C 24.227 124.760,24.424 124.358,24.571 123.771 C 24.719 123.185,24.762 122.628,24.668 122.534 C 24.573 122.440,24.376 122.842,24.229 123.429 M375.212 123.000 C 375.212 123.440,375.387 124.070,375.600 124.400 C 375.921 124.897,375.988 124.862,375.988 124.200 C 375.988 123.760,375.813 123.130,375.600 122.800 C 375.279 122.303,375.212 122.338,375.212 123.000 M264.240 124.840 C 264.093 125.757,264.052 126.585,264.147 126.680 C 264.242 126.776,264.446 126.110,264.600 125.200 C 264.754 124.290,264.796 123.462,264.693 123.360 C 264.590 123.257,264.387 123.923,264.240 124.840 M23.476 128.010 C 23.330 128.555,23.227 129.450,23.246 130.000 C 23.271 130.718,23.384 130.557,23.649 129.427 C 24.055 127.695,23.900 126.425,23.476 128.010 M376.075 127.800 C 376.086 128.240,376.232 129.140,376.400 129.800 L 376.705 131.000 376.725 129.800 C 376.735 129.140,376.589 128.240,376.400 127.800 L 376.056 127.000 376.075 127.800 M136.083 129.200 C 136.070 129.970,136.203 131.410,136.380 132.400 C 136.812 134.831,136.846 132.547,136.418 129.800 C 136.164 128.165,136.103 128.055,136.083 129.200 M263.388 131.388 C 263.231 133.064,263.198 134.531,263.314 134.648 C 263.431 134.764,263.655 133.488,263.812 131.812 C 263.969 130.136,264.002 128.669,263.886 128.552 C 263.769 128.436,263.545 129.712,263.388 131.388 M263.280 143.400 C 263.268 144.280,263.403 145.810,263.580 146.800 L 263.900 148.600 263.920 147.000 C 263.932 146.120,263.797 144.590,263.620 143.600 L 263.300 141.800 263.280 143.400 M136.225 145.625 C 136.070 147.194,136.027 148.561,136.129 148.662 C 136.231 148.764,136.443 147.566,136.600 146.000 C 136.757 144.434,136.800 143.067,136.696 142.963 C 136.592 142.858,136.380 144.056,136.225 145.625 M376.464 146.450 C 376.429 146.808,376.298 147.708,376.173 148.450 C 375.988 149.555,376.029 149.671,376.398 149.091 C 376.646 148.702,376.777 147.802,376.689 147.091 C 376.600 146.381,376.499 146.093,376.464 146.450 M23.246 147.400 C 23.227 148.060,23.387 148.870,23.600 149.200 C 24.090 149.958,24.090 148.730,23.600 147.200 C 23.286 146.220,23.279 146.224,23.246 147.400 M264.272 151.800 C 264.399 152.900,264.569 153.875,264.651 153.967 C 264.932 154.282,264.720 151.799,264.380 150.800 C 264.151 150.126,264.116 150.451,264.272 151.800 M24.034 152.600 C 24.022 153.040,24.187 153.670,24.400 154.000 C 24.914 154.795,24.914 153.796,24.400 152.600 L 24.056 151.800 24.034 152.600 M375.429 153.029 C 375.281 153.615,375.251 154.184,375.361 154.294 C 375.471 154.404,375.681 154.015,375.829 153.429 C 375.976 152.842,376.006 152.273,375.896 152.163 C 375.786 152.053,375.576 152.442,375.429 153.029 M265.002 156.100 C 265.420 158.149,266.772 162.809,267.583 165.000 C 267.991 166.100,268.435 167.341,268.571 167.757 C 268.708 168.174,268.913 168.421,269.027 168.306 C 269.142 168.191,268.782 166.951,268.228 165.549 C 267.260 163.103,266.373 160.128,265.530 156.500 C 265.071 154.523,264.608 154.173,265.002 156.100 M374.594 157.100 C 374.472 157.705,374.198 158.753,373.986 159.428 C 373.419 161.233,373.570 162.036,374.169 160.400 C 374.790 158.702,375.316 156.000,375.026 156.000 C 374.910 156.000,374.716 156.495,374.594 157.100 M371.798 166.291 C 370.181 170.595,367.901 175.124,364.970 179.852 C 364.334 180.878,364.330 180.934,364.938 180.376 C 366.600 178.853,373.290 165.157,372.674 164.540 C 372.587 164.453,372.193 165.241,371.798 166.291 M131.644 166.044 C 131.398 166.751,131.263 167.396,131.344 167.478 C 131.426 167.559,131.721 167.074,132.000 166.400 C 132.279 165.726,132.414 165.081,132.300 164.967 C 132.186 164.853,131.891 165.338,131.644 166.044 M28.256 167.200 C 28.665 168.772,30.000 171.733,30.207 171.526 C 30.375 171.358,29.989 170.397,28.471 167.200 L 27.996 166.200 28.256 167.200 M269.234 169.000 C 269.234 169.220,269.578 170.030,270.000 170.800 C 270.422 171.570,270.766 172.020,270.766 171.800 C 270.766 171.580,270.422 170.770,270.000 170.000 C 269.578 169.230,269.234 168.780,269.234 169.000 M272.620 176.040 C 273.189 177.162,273.734 177.999,273.833 177.901 C 274.023 177.710,272.051 174.000,271.759 174.000 C 271.664 174.000,272.052 174.918,272.620 176.040 M33.611 178.273 C 34.074 179.193,34.744 180.183,35.101 180.473 C 35.868 181.097,34.882 179.262,33.542 177.574 C 32.847 176.697,32.854 176.767,33.611 178.273 M125.837 178.200 C 125.476 178.750,125.337 179.200,125.527 179.200 C 125.716 179.200,126.077 178.750,126.327 178.200 C 126.578 177.650,126.717 177.200,126.637 177.200 C 126.557 177.200,126.197 177.650,125.837 178.200 M124.237 180.600 C 123.876 181.150,123.737 181.600,123.927 181.600 C 124.116 181.600,124.477 181.150,124.727 180.600 C 124.978 180.050,125.117 179.600,125.037 179.600 C 124.957 179.600,124.597 180.050,124.237 180.600 M275.273 180.600 C 275.523 181.150,275.884 181.600,276.073 181.600 C 276.263 181.600,276.124 181.150,275.763 180.600 C 275.403 180.050,275.043 179.600,274.963 179.600 C 274.883 179.600,275.022 180.050,275.273 180.600 M35.600 181.365 C 35.600 181.768,37.246 183.843,39.532 186.322 C 40.698 187.586,40.447 187.154,38.763 185.000 C 35.678 181.054,35.600 180.964,35.600 181.365 M362.581 183.309 C 361.717 184.459,360.918 185.492,360.805 185.603 C 360.692 185.715,360.164 186.345,359.631 187.003 C 359.099 187.662,359.459 187.355,360.431 186.322 C 362.827 183.777,364.542 181.609,364.328 181.394 C 364.230 181.297,363.444 182.159,362.581 183.309 M120.998 185.054 C 119.682 186.733,116.804 189.825,114.603 191.924 C 112.401 194.023,111.209 195.320,111.954 194.805 C 114.635 192.951,121.675 185.352,123.353 182.500 C 124.051 181.314,123.228 182.206,120.998 185.054 M276.774 182.600 C 277.406 183.825,278.369 184.964,278.588 184.746 C 278.695 184.638,278.238 183.931,277.572 183.175 C 276.906 182.419,276.547 182.160,276.774 182.600 M279.130 185.800 C 279.686 186.892,286.947 194.003,289.339 195.799 C 292.501 198.173,291.830 197.170,288.525 194.582 C 286.852 193.272,283.961 190.580,282.102 188.600 C 280.244 186.620,278.906 185.360,279.130 185.800 M41.600 188.710 C 41.600 189.131,44.737 192.205,44.932 191.974 C 45.013 191.878,44.297 191.031,43.340 190.091 C 42.383 189.151,41.600 188.529,41.600 188.710 M355.600 191.143 C 354.170 192.551,351.786 194.611,350.303 195.721 C 348.820 196.831,347.683 197.816,347.777 197.910 C 348.003 198.136,350.629 196.083,354.800 192.420 C 356.670 190.778,358.264 189.393,358.342 189.342 C 358.420 189.291,358.420 189.100,358.342 188.916 C 358.264 188.732,357.030 189.734,355.600 191.143 M47.874 194.700 C 48.597 195.415,49.411 196.000,49.683 196.000 C 49.955 196.000,49.733 195.702,49.189 195.338 C 48.645 194.973,47.831 194.388,47.379 194.038 C 46.928 193.687,47.151 193.985,47.874 194.700 M108.000 197.276 C 106.790 198.143,103.820 199.843,101.400 201.054 C 98.980 202.264,97.450 203.128,98.000 202.974 C 100.214 202.355,108.174 197.955,110.367 196.138 C 111.493 195.205,109.657 196.087,108.000 197.276 M51.089 197.230 C 51.578 197.739,52.078 198.055,52.201 197.932 C 52.324 197.809,51.924 197.392,51.312 197.006 L 50.200 196.304 51.089 197.230 M292.000 197.495 C 292.000 197.884,293.614 198.919,293.851 198.682 C 293.947 198.586,293.569 198.210,293.012 197.845 C 292.456 197.480,292.000 197.322,292.000 197.495 M53.200 198.531 C 53.955 199.254,57.645 201.288,57.843 201.090 C 57.924 201.010,56.777 200.271,55.295 199.450 C 53.813 198.629,52.870 198.215,53.200 198.531 M346.183 198.557 C 343.662 200.322,336.524 203.483,333.400 204.217 C 332.740 204.372,332.401 204.574,332.648 204.665 C 333.186 204.865,341.024 202.180,341.600 201.598 C 341.710 201.487,342.850 200.857,344.133 200.198 C 345.416 199.539,346.653 198.775,346.882 198.500 C 347.427 197.845,347.169 197.866,346.183 198.557 M294.400 199.194 C 294.400 199.511,302.364 203.381,302.552 203.155 C 302.623 203.070,300.818 202.083,298.541 200.963 C 296.263 199.843,294.400 199.047,294.400 199.194 M61.287 202.825 C 62.330 203.433,66.900 204.834,67.120 204.613 C 67.227 204.506,67.064 204.346,66.757 204.257 C 66.451 204.167,65.390 203.862,64.400 203.578 C 63.410 203.293,62.429 202.912,62.220 202.730 C 62.011 202.549,61.561 202.405,61.220 202.412 C 60.702 202.422,60.713 202.490,61.287 202.825 M68.800 205.200 C 70.168 205.638,71.219 205.638,70.200 205.200 C 69.760 205.011,69.040 204.862,68.600 204.868 C 67.957 204.877,67.996 204.943,68.800 205.200 M89.600 205.206 C 89.178 205.482,89.415 205.523,90.400 205.342 C 92.125 205.025,92.451 204.798,91.167 204.806 C 90.635 204.809,89.930 204.989,89.600 205.206 M308.033 204.947 C 308.125 205.028,308.920 205.204,309.800 205.338 C 310.915 205.507,311.158 205.471,310.600 205.219 C 309.832 204.871,307.690 204.644,308.033 204.947 M329.600 205.200 C 328.836 205.694,329.658 205.694,331.200 205.200 L 332.200 204.880 331.200 204.846 C 330.650 204.827,329.930 204.987,329.600 205.200 M73.000 206.000 C 73.660 206.168,74.740 206.305,75.400 206.305 L 76.600 206.305 75.400 206.000 C 74.740 205.832,73.660 205.695,73.000 205.695 L 71.800 205.695 73.000 206.000 M84.200 206.000 C 82.470 206.440,84.357 206.455,86.800 206.020 L 88.600 205.700 87.000 205.697 C 86.120 205.696,84.860 205.832,84.200 206.000 M313.400 206.023 C 314.280 206.205,315.540 206.344,316.200 206.331 C 317.244 206.311,317.192 206.265,315.800 205.977 C 314.920 205.795,313.660 205.656,313.000 205.669 C 311.956 205.689,312.008 205.735,313.400 206.023 M324.200 206.000 L 323.000 206.305 324.400 206.305 C 325.170 206.305,326.340 206.168,327.000 206.000 L 328.200 205.695 326.800 205.695 C 326.030 205.695,324.860 205.832,324.200 206.000 " stroke="none" fill="#6c654d" fill-rule="evenodd"></path><path id="path8" d="M197.800 238.901 C 196.700 239.323,195.487 239.833,195.105 240.034 C 194.723 240.235,194.149 240.400,193.829 240.400 C 193.509 240.400,193.143 240.568,193.016 240.774 C 192.739 241.223,194.137 240.836,197.161 239.627 C 199.229 238.801,201.074 238.781,202.200 239.574 C 202.420 239.729,203.410 240.101,204.400 240.400 C 205.390 240.699,206.380 241.054,206.600 241.189 C 206.820 241.323,207.720 241.663,208.600 241.943 C 209.480 242.223,210.560 242.604,211.000 242.788 C 211.440 242.973,213.285 243.681,215.100 244.362 C 216.915 245.043,219.795 246.124,221.500 246.765 C 228.727 249.483,230.456 250.078,230.625 249.908 C 230.790 249.743,228.374 248.761,222.900 246.765 C 221.745 246.344,219.765 245.622,218.500 245.161 C 217.235 244.700,215.840 244.177,215.400 244.000 C 214.960 243.823,213.610 243.318,212.400 242.879 C 209.803 241.935,204.145 239.814,201.600 238.830 C 199.870 238.161,199.722 238.164,197.800 238.901 M190.600 241.594 C 190.160 241.780,189.459 242.042,189.043 242.176 C 188.626 242.310,188.378 242.511,188.490 242.623 C 188.603 242.736,189.573 242.472,190.647 242.036 C 191.721 241.600,192.330 241.246,192.000 241.249 C 191.670 241.252,191.040 241.407,190.600 241.594 M171.200 248.800 C 170.667 249.145,170.667 249.188,171.200 249.188 C 171.530 249.188,172.070 249.013,172.400 248.800 C 172.933 248.455,172.933 248.412,172.400 248.412 C 172.070 248.412,171.530 248.587,171.200 248.800 M231.248 250.182 C 231.611 250.544,241.274 254.059,241.443 253.890 C 241.539 253.794,239.382 252.880,236.650 251.858 C 231.979 250.111,230.817 249.750,231.248 250.182 M161.800 252.259 C 160.920 252.599,159.210 253.237,158.000 253.678 C 156.790 254.118,155.440 254.623,155.000 254.800 C 154.560 254.977,153.120 255.517,151.800 256.000 C 150.480 256.483,149.040 257.022,148.600 257.199 C 147.862 257.494,146.534 257.955,144.643 258.572 C 144.226 258.708,143.979 258.912,144.093 259.026 C 144.207 259.140,145.088 258.938,146.050 258.578 C 147.013 258.217,148.790 257.562,150.000 257.122 C 151.210 256.682,152.560 256.177,153.000 256.000 C 153.440 255.823,154.880 255.283,156.200 254.800 C 157.520 254.317,158.960 253.774,159.400 253.592 C 159.840 253.411,161.055 252.954,162.100 252.577 C 163.145 252.200,164.000 251.826,164.000 251.746 C 164.000 251.494,163.450 251.622,161.800 252.259 M242.000 254.137 C 242.000 254.266,245.103 255.483,250.000 257.274 C 251.210 257.716,252.560 258.222,253.000 258.399 C 253.440 258.575,254.430 258.936,255.200 259.200 C 255.970 259.464,257.050 259.867,257.600 260.094 C 259.353 260.818,260.104 261.100,264.800 262.793 C 267.330 263.706,270.750 264.968,272.400 265.598 C 275.813 266.902,277.200 267.330,277.200 267.081 C 277.200 266.986,276.345 266.600,275.300 266.223 C 274.255 265.846,273.040 265.389,272.600 265.208 C 272.160 265.026,270.720 264.483,269.400 264.000 C 268.080 263.517,266.640 262.977,266.200 262.800 C 265.760 262.623,264.365 262.100,263.100 261.639 C 261.835 261.178,259.765 260.422,258.500 259.961 C 257.235 259.500,255.840 258.970,255.400 258.783 C 254.960 258.597,252.800 257.797,250.600 257.006 C 248.400 256.214,245.721 255.214,244.647 254.783 C 242.773 254.032,242.000 253.843,242.000 254.137 M124.800 266.000 C 124.267 266.345,124.267 266.388,124.800 266.388 C 125.130 266.388,125.670 266.213,126.000 266.000 C 126.533 265.655,126.533 265.612,126.000 265.612 C 125.670 265.612,125.130 265.787,124.800 266.000 M121.600 267.098 C 120.610 267.448,119.995 267.798,120.234 267.878 C 120.473 267.958,121.463 267.670,122.434 267.240 C 124.559 266.297,124.094 266.218,121.600 267.098 M279.000 268.000 C 279.880 268.407,280.870 268.741,281.200 268.741 C 281.530 268.741,281.080 268.407,280.200 268.000 C 279.320 267.593,278.330 267.259,278.000 267.259 C 277.670 267.259,278.120 267.593,279.000 268.000 M115.400 269.459 C 114.520 269.799,112.810 270.437,111.600 270.878 C 110.390 271.318,109.040 271.829,108.600 272.013 C 108.160 272.197,107.080 272.576,106.200 272.855 C 105.320 273.135,104.429 273.507,104.220 273.682 C 104.011 273.857,103.527 274.000,103.144 274.000 C 102.761 274.000,102.343 274.168,102.216 274.374 C 101.902 274.882,104.314 274.137,108.600 272.402 C 109.394 272.080,112.053 271.098,115.700 269.779 C 116.745 269.401,117.600 269.026,117.600 268.946 C 117.600 268.694,117.050 268.822,115.400 269.459 M282.200 269.200 C 282.336 269.420,282.683 269.600,282.970 269.600 C 283.258 269.600,284.372 269.943,285.447 270.362 C 290.946 272.508,292.045 272.889,292.223 272.710 C 292.399 272.534,282.844 268.800,282.218 268.800 C 282.072 268.800,282.064 268.980,282.200 269.200 M293.000 273.200 C 293.136 273.420,293.483 273.600,293.770 273.600 C 294.221 273.600,295.409 274.022,299.400 275.603 C 299.840 275.777,300.830 276.136,301.600 276.400 C 302.370 276.664,303.360 277.025,303.800 277.201 C 304.240 277.378,305.590 277.889,306.800 278.338 C 308.010 278.786,312.214 280.345,316.142 281.801 C 320.070 283.258,323.356 284.377,323.444 284.289 C 323.533 284.201,322.299 283.635,320.702 283.032 C 319.106 282.428,317.440 281.788,317.000 281.608 C 316.560 281.428,315.570 281.064,314.800 280.800 C 314.030 280.536,313.040 280.176,312.600 280.000 C 312.160 279.824,311.170 279.464,310.400 279.200 C 309.630 278.936,308.595 278.557,308.100 278.360 C 307.605 278.162,306.795 277.838,306.300 277.640 C 305.805 277.443,304.770 277.064,304.000 276.800 C 303.230 276.536,302.240 276.167,301.800 275.982 C 297.287 274.078,292.633 272.607,293.000 273.200 M99.600 275.161 C 97.556 276.232,97.153 276.400,96.629 276.400 C 96.309 276.400,95.943 276.568,95.816 276.774 C 95.537 277.225,97.006 276.817,99.800 275.667 C 100.900 275.214,101.440 274.844,101.000 274.845 C 100.560 274.846,99.930 274.988,99.600 275.161 M77.200 283.600 C 76.210 284.015,75.580 284.363,75.800 284.372 C 76.350 284.394,79.122 283.411,79.459 283.074 C 79.920 282.614,79.090 282.807,77.200 283.600 " stroke="none" fill="#cc6c7c" fill-rule="evenodd"></path></g></svg>